<svg xmlns="http://www.w3.org/2000/svg" width="256" height="256" version="1.1" id="SVGRoot"><g id="layer1"><g id="g4744" transform="matrix(4.73783 0 0 4.73783 -576.315 -344.65)"><g id="g5716" transform="translate(0 -.322)" fill-opacity="1"><path id="rect5657" d="M136.285 86.968a7.583 7.583 0 0 0-7.583 7.584 7.583 7.583 0 0 0 7.583 7.583h25.278a7.583 7.583 0 0 0 7.583-7.583 7.583 7.583 0 0 0-7.583-7.584z" opacity="1" fill="#fff" stroke="#000" stroke-width="2.866" stroke-linecap="round" stroke-linejoin="round" stroke-miterlimit="4" stroke-dasharray="none" stroke-dashoffset="0" stroke-opacity="1"/><path id="rect5666" d="M148.924 86.968v15.167h12.639a7.583 7.583 0 0 0 7.583-7.583 7.583 7.583 0 0 0-7.583-7.584z" opacity="1" fill="#000" stroke="#000" stroke-width="2.866" stroke-linecap="round" stroke-linejoin="round" stroke-miterlimit="4" stroke-dasharray="none" stroke-dashoffset="0" stroke-opacity="1"/><g aria-label="AZTHRMCN" transform="matrix(.21107 0 0 .21107 121.641 73.066)" style="line-height:1;text-align:center" id="flowRoot5718" font-style="normal" font-weight="700" font-size="32" font-family="Arial" letter-spacing="0" word-spacing="0" text-anchor="middle" fill="#000" stroke="none" font-variant="normal" font-stretch="normal"><path d="M60.266 191.894h-5.032l-2-5.203h-9.156l-1.89 5.203H37.28l8.922-22.907h4.89zm-8.516-9.063l-3.156-8.5-3.094 8.5z" style="line-height:1;-inkscape-font-specification:'Arial Bold';text-align:center" id="path847"/><path d="M60.75 191.894v-4.172l12.031-14.86H62.11v-3.875h16.766v3.594l-12.547 15.453H79.36v3.86z" style="line-height:1;-inkscape-font-specification:'Arial Bold';text-align:center" id="path849"/><path d="M87.453 191.894v-19.032h-6.797v-3.875H98.86v3.875h-6.78v19.032z" style="line-height:1;-inkscape-font-specification:'Arial Bold';text-align:center" id="path851"/><path d="M101.875 191.894v-22.907h4.625v9.016h9.063v-9.016h4.624v22.907h-4.624v-10.016H106.5v10.016z" style="line-height:1;-inkscape-font-specification:'Arial Bold';text-align:center" id="path853"/><path d="M125 191.894v-22.907h9.734q3.672 0 5.328.625 1.672.61 2.672 2.188 1 1.578 1 3.61 0 2.577-1.515 4.265-1.516 1.672-4.531 2.11 1.5.874 2.468 1.921.985 1.047 2.64 3.719l2.798 4.469h-5.531l-3.344-4.985q-1.781-2.672-2.438-3.36-.656-.702-1.39-.952-.735-.266-2.329-.266h-.937v9.563zm4.625-13.22h3.422q3.328 0 4.156-.28.828-.282 1.297-.97.469-.687.469-1.718 0-1.156-.625-1.86-.61-.718-1.735-.905-.562-.079-3.375-.079h-3.609z" style="line-height:1;-inkscape-font-specification:'Arial Bold';text-align:center" id="path855"/><path d="M148.047 191.894v-22.907h6.922l4.156 15.625 4.11-15.625h6.937v22.907h-4.297v-18.032l-4.547 18.032h-4.453l-4.531-18.032v18.032z" style="line-height:1;-inkscape-font-specification:'Arial Bold';text-align:center" id="path857"/><path d="M189.453 183.472l4.484 1.422q-1.03 3.75-3.437 5.578-2.39 1.812-6.078 1.812-4.563 0-7.5-3.11-2.938-3.124-2.938-8.53 0-5.72 2.953-8.875 2.954-3.172 7.766-3.172 4.203 0 6.828 2.484 1.563 1.469 2.344 4.219l-4.578 1.094q-.406-1.782-1.703-2.813-1.281-1.031-3.125-1.031-2.547 0-4.14 1.828-1.579 1.828-1.579 5.922 0 4.344 1.563 6.187 1.562 1.844 4.062 1.844 1.844 0 3.172-1.172t1.906-3.687z" style="line-height:1;-inkscape-font-specification:'Arial Bold';text-align:center" id="path859"/><path d="M197.969 191.894v-22.907h4.5l9.375 15.297v-15.297h4.297v22.907H211.5l-9.234-14.938v14.938z" style="line-height:1;-inkscape-font-specification:'Arial Bold';text-align:center" id="path861"/></g></g></g></g></svg>