<svg xmlns="http://www.w3.org/2000/svg" width="256" height="256" version="1.1" id="SVGRoot"><g id="layer1"><g id="g4744" transform="matrix(4.73783 0 0 4.73783 -576.315 -344.65)"><g id="g5716" transform="translate(0 -.322)"><g aria-label="BNZTHN PN-G" transform="matrix(.21107 0 0 .21107 121.641 73.066)" style="line-height:1;text-align:center" id="flowRoot5718" font-style="normal" font-weight="700" font-size="32" font-family="Arial" letter-spacing="0" word-spacing="0" text-anchor="middle" fill="#000" fill-opacity="1" stroke="none" font-variant="normal" font-stretch="normal"><path d="M20.063 168.987h9.156q2.718 0 4.047.235 1.343.219 2.39.937 1.063.719 1.766 1.922.703 1.188.703 2.672 0 1.61-.875 2.953-.86 1.344-2.344 2.016 2.094.61 3.219 2.078 1.125 1.469 1.125 3.453 0 1.563-.734 3.047-.72 1.469-1.985 2.36-1.25.874-3.093 1.077-1.157.125-5.579.157h-7.797zm4.625 3.813v5.297h3.03q2.704 0 3.36-.078 1.188-.14 1.86-.813.687-.687.687-1.797 0-1.062-.594-1.718-.578-.672-1.734-.813-.688-.078-3.953-.078zm0 9.11v6.124h4.28q2.5 0 3.173-.14 1.03-.188 1.672-.907.656-.734.656-1.953 0-1.031-.5-1.75-.5-.718-1.453-1.047-.938-.328-4.094-.328z" style="line-height:1;-inkscape-font-specification:'Arial Bold';text-align:center" id="path1443"/><path d="M43.219 191.894v-22.907h4.5l9.375 15.297v-15.297h4.297v22.907H56.75l-9.234-14.938v14.938z" style="line-height:1;-inkscape-font-specification:'Arial Bold';text-align:center" id="path1445"/><path d="M64.313 191.894v-4.172l12.03-14.86H65.673v-3.875h16.766v3.594L69.89 188.034h13.03v3.86z" style="line-height:1;-inkscape-font-specification:'Arial Bold';text-align:center" id="path1447"/><path d="M91.016 191.894v-19.032h-6.797v-3.875h18.203v3.875H95.64v19.032z" style="line-height:1;-inkscape-font-specification:'Arial Bold';text-align:center" id="path1449"/><path d="M105.438 191.894v-22.907h4.624v9.016h9.063v-9.016h4.625v22.907h-4.625v-10.016h-9.063v10.016z" style="line-height:1;-inkscape-font-specification:'Arial Bold';text-align:center" id="path1451"/><path d="M128.594 191.894v-22.907h4.5l9.375 15.297v-15.297h4.297v22.907h-4.641l-9.234-14.938v14.938z" style="line-height:1;-inkscape-font-specification:'Arial Bold';text-align:center" id="path1453"/><path d="M160.547 191.894v-22.907h7.422q4.219 0 5.5.344 1.969.516 3.297 2.25 1.328 1.719 1.328 4.453 0 2.11-.766 3.547-.766 1.438-1.953 2.266-1.172.812-2.39 1.078-1.657.328-4.798.328h-3.015v8.64zm4.625-19.032v6.5h2.531q2.734 0 3.656-.359.922-.36 1.438-1.125.531-.766.531-1.781 0-1.25-.734-2.063-.735-.812-1.86-1.015-.828-.157-3.328-.157z" style="line-height:1;-inkscape-font-specification:'Arial Bold';text-align:center" id="path1455"/><path d="M181.969 191.894v-22.907h4.5l9.375 15.297v-15.297h4.297v22.907H195.5l-9.234-14.938v14.938z" style="line-height:1;-inkscape-font-specification:'Arial Bold';text-align:center" id="path1457"/><path d="M204.516 185.784v-4.39h8.625v4.39z" style="line-height:1;-inkscape-font-specification:'Arial Bold';text-align:center" id="path1459"/><path d="M226.39 183.472v-3.86h9.97v9.125q-1.454 1.407-4.22 2.485-2.75 1.062-5.577 1.062-3.594 0-6.266-1.5-2.672-1.515-4.016-4.312-1.344-2.813-1.344-6.11 0-3.578 1.5-6.359t4.391-4.266q2.203-1.14 5.484-1.14 4.266 0 6.657 1.797 2.406 1.78 3.094 4.937l-4.594.86q-.485-1.688-1.828-2.657-1.329-.984-3.329-.984-3.03 0-4.828 1.922-1.78 1.922-1.78 5.703 0 4.078 1.812 6.125 1.812 2.031 4.75 2.031 1.453 0 2.906-.562 1.469-.578 2.515-1.391v-2.906z" style="line-height:1;-inkscape-font-specification:'Arial Bold';text-align:center" id="path1461"/></g><path d="M129.942 95.052h12.488" id="path5728" fill="none" stroke="#000" stroke-width=".633" stroke-linecap="round" stroke-linejoin="miter" stroke-opacity="1" stroke-miterlimit="4" stroke-dasharray="none"/><path id="rect5730" opacity="1" fill="#000" fill-opacity="1" stroke="none" stroke-width="11.8" stroke-linecap="round" stroke-linejoin="round" stroke-miterlimit="4" stroke-dasharray="none" stroke-dashoffset="0" stroke-opacity="1" d="M142.43 92.554h22.479v4.995H142.43z"/><path id="rect5732" opacity="1" fill="#000" fill-opacity="1" stroke="none" stroke-width="11.8" stroke-linecap="round" stroke-linejoin="round" stroke-miterlimit="4" stroke-dasharray="none" stroke-dashoffset="0" stroke-opacity="1" d="M139.933 93.803h2.498v2.498h-2.498z"/><rect id="rect5734" width="2.498" height="7.493" x="164.91" y="91.305" rx=".422" ry=".422" opacity="1" fill="#000" fill-opacity="1" stroke="none" stroke-width="11.8" stroke-linecap="round" stroke-linejoin="round" stroke-miterlimit="4" stroke-dasharray="none" stroke-dashoffset="0" stroke-opacity="1"/></g></g></g></svg>