<svg xmlns="http://www.w3.org/2000/svg" width="256" height="256" version="1.1" id="SVGRoot"><g id="layer1"><g id="g4744" transform="matrix(4.73783 0 0 4.73783 -576.315 -344.65)"><g id="g5716" transform="translate(0 -.322)"><g aria-label="CEFTRXONE" transform="matrix(.21107 0 0 .21107 121.641 73.066)" style="line-height:1;text-align:center" id="flowRoot5718" font-style="normal" font-weight="700" font-size="32" font-family="Arial" letter-spacing="0" word-spacing="0" text-anchor="middle" fill="#000" fill-opacity="1" stroke="none" font-variant="normal" font-stretch="normal"><path d="M46.234 183.472l4.485 1.422q-1.032 3.75-3.438 5.578-2.39 1.812-6.078 1.812-4.562 0-7.5-3.11-2.937-3.124-2.937-8.53 0-5.72 2.953-8.875 2.953-3.172 7.765-3.172 4.203 0 6.828 2.484 1.563 1.469 2.344 4.219l-4.578 1.094q-.406-1.782-1.703-2.813-1.281-1.031-3.125-1.031-2.547 0-4.14 1.828-1.579 1.828-1.579 5.922 0 4.344 1.563 6.187 1.562 1.844 4.062 1.844 1.844 0 3.172-1.172t1.906-3.687z" style="line-height:1;-inkscape-font-specification:'Arial Bold';text-align:center" id="path2043"/><path d="M54.703 191.894v-22.907h16.984v3.875H59.328v5.079h11.5v3.859h-11.5v6.234h12.797v3.86z" style="line-height:1;-inkscape-font-specification:'Arial Bold';text-align:center" id="path2045"/><path d="M76.11 191.894v-22.907h15.703v3.875H80.733v5.422h9.563v3.875h-9.563v9.735z" style="line-height:1;-inkscape-font-specification:'Arial Bold';text-align:center" id="path2047"/><path d="M100.797 191.894v-19.032H94v-3.875h18.203v3.875h-6.781v19.032z" style="line-height:1;-inkscape-font-specification:'Arial Bold';text-align:center" id="path2049"/><path d="M115.219 191.894v-22.907h9.734q3.672 0 5.328.625 1.672.61 2.672 2.188 1 1.578 1 3.61 0 2.577-1.516 4.265-1.515 1.672-4.53 2.11 1.5.874 2.468 1.921.984 1.047 2.64 3.719l2.798 4.469h-5.532l-3.344-4.985q-1.78-2.672-2.437-3.36-.656-.702-1.39-.952-.735-.266-2.329-.266h-.937v9.563zm4.625-13.22h3.422q3.328 0 4.156-.28.828-.282 1.297-.97.469-.687.469-1.718 0-1.156-.625-1.86-.61-.718-1.735-.905-.562-.079-3.375-.079h-3.61z" style="line-height:1;-inkscape-font-specification:'Arial Bold';text-align:center" id="path2051"/><path d="M136 191.894l7.828-11.953-7.094-10.954h5.407l4.593 7.36 4.5-7.36h5.36l-7.125 11.125 7.828 11.782h-5.578l-5.078-7.922-5.094 7.922z" style="line-height:1;-inkscape-font-specification:'Arial Bold';text-align:center" id="path2053"/><path d="M158.766 180.581q0-3.5 1.046-5.875.782-1.75 2.125-3.14 1.36-1.391 2.97-2.063 2.14-.906 4.937-.906 5.062 0 8.094 3.14 3.046 3.141 3.046 8.735 0 5.547-3.015 8.687-3.016 3.125-8.063 3.125-5.11 0-8.125-3.11-3.015-3.124-3.015-8.593zm4.765-.156q0 3.89 1.797 5.906 1.797 2 4.563 2 2.765 0 4.53-1.984 1.782-2 1.782-5.985 0-3.937-1.734-5.875-1.719-1.937-4.578-1.937-2.86 0-4.61 1.969-1.75 1.953-1.75 5.906z" style="line-height:1;-inkscape-font-specification:'Arial Bold';text-align:center" id="path2055"/><path d="M184.625 191.894v-22.907h4.5l9.375 15.297v-15.297h4.297v22.907h-4.64l-9.235-14.938v14.938z" style="line-height:1;-inkscape-font-specification:'Arial Bold';text-align:center" id="path2057"/><path d="M207.703 191.894v-22.907h16.984v3.875h-12.359v5.079h11.5v3.859h-11.5v6.234h12.797v3.86z" style="line-height:1;-inkscape-font-specification:'Arial Bold';text-align:center" id="path2059"/></g><path d="M129.942 95.052h12.488" id="path5728" fill="none" stroke="#000" stroke-width=".633" stroke-linecap="round" stroke-linejoin="miter" stroke-opacity="1" stroke-miterlimit="4" stroke-dasharray="none"/><path id="rect5730" opacity="1" fill="#000" fill-opacity="1" stroke="none" stroke-width="11.8" stroke-linecap="round" stroke-linejoin="round" stroke-miterlimit="4" stroke-dasharray="none" stroke-dashoffset="0" stroke-opacity="1" d="M142.43 92.554h22.479v4.995H142.43z"/><path id="rect5732" opacity="1" fill="#000" fill-opacity="1" stroke="none" stroke-width="11.8" stroke-linecap="round" stroke-linejoin="round" stroke-miterlimit="4" stroke-dasharray="none" stroke-dashoffset="0" stroke-opacity="1" d="M139.933 93.803h2.498v2.498h-2.498z"/><rect id="rect5734" width="2.498" height="7.493" x="164.91" y="91.305" rx=".422" ry=".422" opacity="1" fill="#000" fill-opacity="1" stroke="none" stroke-width="11.8" stroke-linecap="round" stroke-linejoin="round" stroke-miterlimit="4" stroke-dasharray="none" stroke-dashoffset="0" stroke-opacity="1"/></g></g></g></svg>