<svg xmlns="http://www.w3.org/2000/svg" width="256" height="256" version="1.1" id="SVGRoot"><g id="layer1"><g id="g4744" transform="matrix(4.73783 0 0 4.73783 -576.315 -344.65)"><g id="g5716" transform="translate(0 -.322)" fill="#000"><g aria-label="CLTRMAZOLE" transform="matrix(.21107 0 0 .21107 121.641 73.066)" style="line-height:1;text-align:center" id="flowRoot5718" font-style="normal" font-weight="700" font-size="32" font-family="Arial" letter-spacing="0" word-spacing="0" text-anchor="middle" fill-opacity="1" stroke="none" font-variant="normal" font-stretch="normal"><path d="M35.89 183.472l4.485 1.422q-1.031 3.75-3.438 5.578-2.39 1.812-6.078 1.812-4.562 0-7.5-3.11-2.937-3.124-2.937-8.53 0-5.72 2.953-8.875 2.953-3.172 7.766-3.172 4.203 0 6.828 2.484 1.562 1.469 2.343 4.219l-4.578 1.094q-.406-1.782-1.703-2.813-1.281-1.031-3.125-1.031-2.547 0-4.14 1.828-1.578 1.828-1.578 5.922 0 4.344 1.562 6.187 1.563 1.844 4.063 1.844 1.843 0 3.171-1.172 1.328-1.172 1.907-3.687z" style="line-height:1;-inkscape-font-specification:'Arial Bold';text-align:center" id="path2637"/><path d="M44.484 191.894v-22.72h4.625v18.86h11.5v3.86z" style="line-height:1;-inkscape-font-specification:'Arial Bold';text-align:center" id="path2639"/><path d="M66.703 191.894v-19.032h-6.797v-3.875H78.11v3.875h-6.78v19.032z" style="line-height:1;-inkscape-font-specification:'Arial Bold';text-align:center" id="path2641"/><path d="M81.125 191.894v-22.907h9.734q3.672 0 5.329.625 1.671.61 2.671 2.188 1 1.578 1 3.61 0 2.577-1.515 4.265-1.516 1.672-4.531 2.11 1.5.874 2.468 1.921.985 1.047 2.64 3.719l2.798 4.469h-5.531l-3.344-4.985q-1.781-2.672-2.438-3.36-.656-.702-1.39-.952-.735-.266-2.329-.266h-.937v9.563zm4.625-13.22h3.422q3.328 0 4.156-.28.828-.282 1.297-.97.469-.687.469-1.718 0-1.156-.625-1.86-.61-.718-1.735-.905-.562-.079-3.375-.079H85.75z" style="line-height:1;-inkscape-font-specification:'Arial Bold';text-align:center" id="path2643"/><path d="M104.172 191.894v-22.907h6.922l4.156 15.625 4.11-15.625h6.937v22.907H122v-18.032l-4.547 18.032H113l-4.531-18.032v18.032z" style="line-height:1;-inkscape-font-specification:'Arial Bold';text-align:center" id="path2645"/><path d="M151.578 191.894h-5.031l-2-5.203h-9.156l-1.891 5.203h-4.906l8.922-22.907h4.89zm-8.516-9.063l-3.156-8.5-3.094 8.5z" style="line-height:1;-inkscape-font-specification:'Arial Bold';text-align:center" id="path2647"/><path d="M152.063 191.894v-4.172l12.03-14.86h-10.671v-3.875h16.765v3.594l-12.546 15.453h13.03v3.86z" style="line-height:1;-inkscape-font-specification:'Arial Bold';text-align:center" id="path2649"/><path d="M172.672 180.581q0-3.5 1.047-5.875.781-1.75 2.125-3.14 1.36-1.391 2.969-2.063 2.14-.906 4.937-.906 5.063 0 8.094 3.14 3.047 3.141 3.047 8.735 0 5.547-3.016 8.687-3.016 3.125-8.063 3.125-5.109 0-8.125-3.11-3.015-3.124-3.015-8.593zm4.765-.156q0 3.89 1.797 5.906 1.797 2 4.563 2 2.765 0 4.531-1.984 1.781-2 1.781-5.985 0-3.937-1.734-5.875-1.719-1.937-4.578-1.937-2.86 0-4.61 1.969-1.75 1.953-1.75 5.906z" style="line-height:1;-inkscape-font-specification:'Arial Bold';text-align:center" id="path2651"/><path d="M198.61 191.894v-22.72h4.624v18.86h11.5v3.86z" style="line-height:1;-inkscape-font-specification:'Arial Bold';text-align:center" id="path2653"/><path d="M218.047 191.894v-22.907h16.984v3.875h-12.36v5.079h11.5v3.859h-11.5v6.234h12.798v3.86z" style="line-height:1;-inkscape-font-specification:'Arial Bold';text-align:center" id="path2655"/></g><rect id="rect5736" width="5.706" height="5.706" x="131.729" y="92.142" rx="1.141" ry="1.141" opacity="1" fill-opacity="1" stroke="#000" stroke-width="1.266" stroke-linecap="round" stroke-linejoin="round" stroke-miterlimit="4" stroke-dasharray="none" stroke-dashoffset="0" stroke-opacity="1"/><path d="M137.435 93.283L165.965 91v7.989l-28.53-2.283z" id="path5738" stroke="#000" stroke-width="1.141" stroke-linecap="butt" stroke-linejoin="round" stroke-opacity="1"/></g></g></g></svg>