<svg xmlns="http://www.w3.org/2000/svg" width="256" height="256" version="1.1" id="SVGRoot"><g id="layer1"><g id="g4744" transform="matrix(4.73783 0 0 4.73783 -576.315 -344.65)"><g id="g5716" transform="translate(0 -.322)" fill-opacity="1"><path id="rect5657" d="M136.285 86.968a7.583 7.583 0 0 0-7.583 7.584 7.583 7.583 0 0 0 7.583 7.583h25.278a7.583 7.583 0 0 0 7.583-7.583 7.583 7.583 0 0 0-7.583-7.584z" opacity="1" fill="#fff" stroke="#000" stroke-width="2.866" stroke-linecap="round" stroke-linejoin="round" stroke-miterlimit="4" stroke-dasharray="none" stroke-dashoffset="0" stroke-opacity="1"/><path id="rect5666" d="M148.924 86.968v15.167h12.639a7.583 7.583 0 0 0 7.583-7.583 7.583 7.583 0 0 0-7.583-7.584z" opacity="1" fill="#000" stroke="#000" stroke-width="2.866" stroke-linecap="round" stroke-linejoin="round" stroke-miterlimit="4" stroke-dasharray="none" stroke-dashoffset="0" stroke-opacity="1"/><g aria-label="DOXYCYCLN" transform="matrix(.21107 0 0 .21107 121.641 73.066)" style="line-height:1;text-align:center" id="flowRoot5718" font-style="normal" font-weight="700" font-size="32" font-family="Arial" letter-spacing="0" word-spacing="0" text-anchor="middle" fill="#000" stroke="none" font-variant="normal" font-stretch="normal"><path d="M29.781 168.987h8.453q2.86 0 4.36.438 2.015.594 3.453 2.11 1.437 1.515 2.187 3.718.75 2.188.75 5.406 0 2.828-.703 4.875-.86 2.5-2.453 4.047-1.203 1.172-3.25 1.828-1.531.485-4.094.485h-8.703zm4.625 3.875v15.172h3.453q1.938 0 2.797-.218 1.125-.282 1.86-.954.75-.671 1.218-2.203.47-1.547.47-4.203 0-2.656-.47-4.078-.468-1.422-1.312-2.219-.844-.797-2.14-1.078-.97-.219-3.798-.219z" style="line-height:1;-inkscape-font-specification:'Arial Bold';text-align:center" id="path3233"/><path d="M51.984 180.581q0-3.5 1.047-5.875.782-1.75 2.125-3.14 1.36-1.391 2.969-2.063 2.14-.906 4.938-.906 5.062 0 8.093 3.14 3.047 3.141 3.047 8.735 0 5.547-3.016 8.687-3.015 3.125-8.062 3.125-5.11 0-8.125-3.11-3.016-3.124-3.016-8.593zm4.766-.156q0 3.89 1.797 5.906 1.797 2 4.562 2 2.766 0 4.532-1.984 1.78-2 1.78-5.985 0-3.937-1.734-5.875-1.718-1.937-4.578-1.937-2.859 0-4.609 1.969-1.75 1.953-1.75 5.906z" style="line-height:1;-inkscape-font-specification:'Arial Bold';text-align:center" id="path3235"/><path d="M75.469 191.894l7.828-11.953-7.094-10.954h5.406l4.594 7.36 4.5-7.36h5.36l-7.126 11.125 7.829 11.782h-5.579l-5.078-7.922-5.093 7.922z" style="line-height:1;-inkscape-font-specification:'Arial Bold';text-align:center" id="path3237"/><path d="M105.188 191.894v-9.641l-8.391-13.266h5.422l5.39 9.063 5.282-9.063h5.328l-8.422 13.297v9.61z" style="line-height:1;-inkscape-font-specification:'Arial Bold';text-align:center" id="path3239"/><path d="M135.203 183.472l4.484 1.422q-1.03 3.75-3.437 5.578-2.39 1.812-6.078 1.812-4.563 0-7.5-3.11-2.938-3.124-2.938-8.53 0-5.72 2.953-8.875 2.954-3.172 7.766-3.172 4.203 0 6.828 2.484 1.563 1.469 2.344 4.219l-4.578 1.094q-.406-1.782-1.703-2.813-1.281-1.031-3.125-1.031-2.547 0-4.14 1.828-1.579 1.828-1.579 5.922 0 4.344 1.563 6.187 1.562 1.844 4.062 1.844 1.844 0 3.172-1.172t1.906-3.687z" style="line-height:1;-inkscape-font-specification:'Arial Bold';text-align:center" id="path3241"/><path d="M149.688 191.894v-9.641l-8.391-13.266h5.422l5.39 9.063 5.282-9.063h5.328l-8.422 13.297v9.61z" style="line-height:1;-inkscape-font-specification:'Arial Bold';text-align:center" id="path3243"/><path d="M179.703 183.472l4.484 1.422q-1.03 3.75-3.437 5.578-2.39 1.812-6.078 1.812-4.563 0-7.5-3.11-2.938-3.124-2.938-8.53 0-5.72 2.953-8.875 2.954-3.172 7.766-3.172 4.203 0 6.828 2.484 1.563 1.469 2.344 4.219l-4.578 1.094q-.406-1.782-1.703-2.813-1.281-1.031-3.125-1.031-2.547 0-4.14 1.828Q169 176.206 169 180.3q0 4.344 1.563 6.187 1.562 1.844 4.062 1.844 1.844 0 3.172-1.172t1.906-3.687z" style="line-height:1;-inkscape-font-specification:'Arial Bold';text-align:center" id="path3245"/><path d="M188.297 191.894v-22.72h4.625v18.86h11.5v3.86z" style="line-height:1;-inkscape-font-specification:'Arial Bold';text-align:center" id="path3247"/><path d="M207.781 191.894v-22.907h4.5l9.375 15.297v-15.297h4.297v22.907h-4.64l-9.235-14.938v14.938z" style="line-height:1;-inkscape-font-specification:'Arial Bold';text-align:center" id="path3249"/></g></g></g></g></svg>