<svg xmlns="http://www.w3.org/2000/svg" width="256" height="256" version="1.1" id="SVGRoot"><g id="layer1"><g id="g4744" transform="matrix(4.73783 0 0 4.73783 -576.315 -344.65)"><g id="g1259" transform="translate(60.78 -750.27) scale(9.66175)"><circle id="circle1237" cx="9.095" cy="87.979" r="2.117" opacity="1" fill="#fff" fill-opacity="1" stroke="#000" stroke-width=".166" stroke-linecap="round" stroke-linejoin="round" stroke-miterlimit="4" stroke-dasharray="none" stroke-dashoffset="0" stroke-opacity="1"/></g><g id="g5476" transform="matrix(1.00875 0 0 1.00875 -.713 70.476)"><g id="g5424" transform="rotate(-160 77.74 287.46) scale(6.30142)" fill="#000" stroke="#fff"><g id="g5422" fill="#000" stroke="#fff"><path id="path5416" d="M15.875 87.98c0 .73.105 1.316-.626 1.316a1.323 1.323 0 0 1 0-2.646c.73 0 .626.599.626 1.33z" opacity="1" fill-opacity="1" stroke-width=".331" stroke-linecap="round" stroke-linejoin="round" stroke-miterlimit="4" stroke-dasharray="none" stroke-dashoffset="0" stroke-opacity="1"/><g id="g5420" transform="matrix(-1 0 0 1 31.75 0)"><path id="path5418" d="M15.875 87.98c0 .73.105 1.316-.626 1.316a1.323 1.323 0 0 1 0-2.646c.73 0 .626.599.626 1.33z" opacity="1" fill="#000" fill-opacity="1" stroke="#fff" stroke-width=".331" stroke-linecap="round" stroke-linejoin="round" stroke-miterlimit="4" stroke-dasharray="none" stroke-dashoffset="0" stroke-opacity="1"/></g></g></g></g><circle id="path879-3" cx="144.872" cy="94.856" r="1.595" opacity="1" fill="#fff" fill-opacity="1" stroke="none" stroke-width=".77" stroke-linecap="round" stroke-linejoin="round" stroke-miterlimit="4" stroke-dasharray="none" stroke-dashoffset="0" stroke-opacity="1"/><circle id="path883-5" cx="144.872" cy="94.856" r=".946" class="eye" opacity="1" fill="#000" fill-opacity="1" stroke="none" stroke-width=".914" stroke-linecap="round" stroke-linejoin="round" stroke-miterlimit="4" stroke-dasharray="none" stroke-dashoffset="0" stroke-opacity="1"/><circle r="1.595" cy="103.886" cx="155.17" id="circle5340" opacity="1" fill="#fff" fill-opacity="1" stroke="none" stroke-width=".77" stroke-linecap="round" stroke-linejoin="round" stroke-miterlimit="4" stroke-dasharray="none" stroke-dashoffset="0" stroke-opacity="1"/><circle class="eye" r=".946" cy="103.886" cx="155.17" id="circle5342" opacity="1" fill="#000" fill-opacity="1" stroke="none" stroke-width=".914" stroke-linecap="round" stroke-linejoin="round" stroke-miterlimit="4" stroke-dasharray="none" stroke-dashoffset="0" stroke-opacity="1"/></g></g></svg>