<svg xmlns="http://www.w3.org/2000/svg" width="256" height="256" version="1.1" id="SVGRoot"><g id="layer1"><g id="g4744" transform="matrix(4.73783 0 0 4.73783 -576.315 -344.65)"><g id="g1259" transform="translate(60.78 -750.27) scale(9.66175)"><circle id="circle1237" cx="9.095" cy="87.979" r="2.117" opacity="1" fill="#fff" fill-opacity="1" stroke="#000" stroke-width=".166" stroke-linecap="round" stroke-linejoin="round" stroke-miterlimit="4" stroke-dasharray="none" stroke-dashoffset="0" stroke-opacity="1"/></g><g id="g5451" transform="matrix(1.22164 0 0 1.22164 -26.505 -22.108)"><g id="g4925" transform="matrix(6.4927 0 0 6.4927 128.492 -469.91)" fill="#000" stroke-width=".537" stroke-miterlimit="4" stroke-dasharray="none" fill-opacity="1" stroke="none" stroke-linecap="round" stroke-linejoin="round" stroke-dashoffset="0" stroke-opacity="1"><path id="path4891" d="M1.945 88.833a.355.355 0 0 0 .288.412l.7.123a.355.355 0 0 0 .412-.288.355.355 0 0 0-.288-.412l-.7-.123a.355.355 0 0 0-.412.288z" opacity="1"/><path id="path4897" d="M1.258 88.083a.355.355 0 0 0 .455.212l.668-.243a.355.355 0 0 0 .213-.456.355.355 0 0 0-.456-.212l-.668.243a.355.355 0 0 0-.212.456z" opacity="1"/><path d="M1.879 86.533a.355.355 0 0 0 .288.411l.7.124a.355.355 0 0 0 .412-.289.355.355 0 0 0-.288-.411l-.7-.124a.355.355 0 0 0-.412.289z" id="path4899" opacity="1"/></g><circle r="1.184" cy="92.322" cx="142.943" id="path879-3" opacity="1" fill="#fff" fill-opacity="1" stroke="none" stroke-width=".572" stroke-linecap="round" stroke-linejoin="round" stroke-miterlimit="4" stroke-dasharray="none" stroke-dashoffset="0" stroke-opacity="1"/><circle class="eye" r=".702" cy="92.322" cx="142.943" id="path883-5" opacity="1" fill="#000" fill-opacity="1" stroke="none" stroke-width=".678" stroke-linecap="round" stroke-linejoin="round" stroke-miterlimit="4" stroke-dasharray="none" stroke-dashoffset="0" stroke-opacity="1"/><circle id="circle5558" cx="138.71" cy="101.133" r="1.184" opacity="1" fill="#fff" fill-opacity="1" stroke="none" stroke-width=".572" stroke-linecap="round" stroke-linejoin="round" stroke-miterlimit="4" stroke-dasharray="none" stroke-dashoffset="0" stroke-opacity="1"/><circle id="circle5560" cx="138.71" cy="101.133" r=".702" class="eye" opacity="1" fill="#000" fill-opacity="1" stroke="none" stroke-width=".678" stroke-linecap="round" stroke-linejoin="round" stroke-miterlimit="4" stroke-dasharray="none" stroke-dashoffset="0" stroke-opacity="1"/><circle r="1.184" cy="107.267" cx="143.548" id="circle5562" opacity="1" fill="#fff" fill-opacity="1" stroke="none" stroke-width=".572" stroke-linecap="round" stroke-linejoin="round" stroke-miterlimit="4" stroke-dasharray="none" stroke-dashoffset="0" stroke-opacity="1"/><circle class="eye" r=".702" cy="107.267" cx="143.548" id="circle5564" opacity="1" fill="#000" fill-opacity="1" stroke="none" stroke-width=".678" stroke-linecap="round" stroke-linejoin="round" stroke-miterlimit="4" stroke-dasharray="none" stroke-dashoffset="0" stroke-opacity="1"/></g></g></g></svg>