<svg xmlns="http://www.w3.org/2000/svg" width="256" height="256" version="1.1" id="SVGRoot"><g id="layer1"><g id="g4744" transform="matrix(4.73783 0 0 4.73783 -576.315 -344.65)"><g id="g1259" transform="translate(60.78 -750.27) scale(9.66175)"><circle id="circle1237" cx="9.095" cy="87.979" r="2.117" opacity="1" fill="#fff" fill-opacity="1" stroke="#000" stroke-width=".166" stroke-linecap="round" stroke-linejoin="round" stroke-miterlimit="4" stroke-dasharray="none" stroke-dashoffset="0" stroke-opacity="1"/></g><g id="g5451" transform="matrix(1.22164 0 0 1.22164 -26.505 -22.108)"><g transform="matrix(1.8212 0 0 1.8212 -27.697 -173.647)" id="g5096" stroke-width=".896" stroke-miterlimit="4" stroke-dasharray="none" stroke="#000" stroke-opacity="1"><g id="g5061"><path d="M98.567 152.835h-9.28l4.64-8.036z" id="path5052" opacity="1" fill="#fff" fill-opacity="1" stroke-linecap="round" stroke-linejoin="round" stroke-dashoffset="0"/><path id="path5054" d="M89.165 152.802l4.762 2.646 4.763-2.646" fill="none" stroke-linecap="butt" stroke-linejoin="miter"/><path id="path5056" d="M93.927 155.448v-2.646" fill="none" stroke-linecap="butt" stroke-linejoin="miter"/></g><g id="g5069" transform="rotate(-120 93.927 150.133)"><path id="path5063" d="M98.567 152.835h-9.28l4.64-8.036z" opacity="1" fill="#fff" fill-opacity="1" stroke-linecap="round" stroke-linejoin="round" stroke-dashoffset="0"/><path d="M89.165 152.802l4.762 2.646 4.763-2.646" id="path5065" fill="none" stroke-linecap="butt" stroke-linejoin="miter"/><path d="M93.927 155.448v-2.646" id="path5067" fill="none" stroke-linecap="butt" stroke-linejoin="miter"/></g><g transform="rotate(120 93.937 150.14)" id="g5077"><path d="M98.567 152.835h-9.28l4.64-8.036z" id="path5071" opacity="1" fill="#fff" fill-opacity="1" stroke-linecap="round" stroke-linejoin="round" stroke-dashoffset="0"/><path id="path5073" d="M89.165 152.802l4.762 2.646 4.763-2.646" fill="none" stroke-linecap="butt" stroke-linejoin="miter"/><path id="path5075" d="M93.927 155.448v-2.646" fill="none" stroke-linecap="butt" stroke-linejoin="miter"/></g><path d="M91.636 148.8l2.291 4.002 2.312-4.004z" id="path5081" fill="none" stroke-linecap="butt" stroke-linejoin="miter"/></g></g></g></g></svg>