<svg xmlns="http://www.w3.org/2000/svg" width="256" height="256" version="1.1" id="SVGRoot"><g id="layer1"><g id="g4744" transform="matrix(4.73783 0 0 4.73783 -576.315 -344.65)"><g id="g5716" transform="translate(0 -.322)" fill-opacity="1"><path id="rect5657" d="M136.285 86.968a7.583 7.583 0 0 0-7.583 7.584 7.583 7.583 0 0 0 7.583 7.583h25.278a7.583 7.583 0 0 0 7.583-7.583 7.583 7.583 0 0 0-7.583-7.584z" opacity="1" fill="#fff" stroke="#000" stroke-width="2.866" stroke-linecap="round" stroke-linejoin="round" stroke-miterlimit="4" stroke-dasharray="none" stroke-dashoffset="0" stroke-opacity="1"/><path id="rect5666" d="M148.924 86.968v15.167h12.639a7.583 7.583 0 0 0 7.583-7.583 7.583 7.583 0 0 0-7.583-7.584z" opacity="1" fill="#000" stroke="#000" stroke-width="2.866" stroke-linecap="round" stroke-linejoin="round" stroke-miterlimit="4" stroke-dasharray="none" stroke-dashoffset="0" stroke-opacity="1"/><g aria-label="METRONDZL" transform="matrix(.21107 0 0 .21107 121.641 73.066)" style="line-height:1;text-align:center" id="flowRoot5718" font-style="normal" font-weight="700" font-size="32" font-family="Arial" letter-spacing="0" word-spacing="0" text-anchor="middle" fill="#000" stroke="none" font-variant="normal" font-stretch="normal"><path d="M29.766 191.894v-22.907h6.922l4.156 15.625 4.11-15.625h6.937v22.907h-4.297v-18.032l-4.547 18.032h-4.453l-4.532-18.032v18.032z" style="line-height:1;-inkscape-font-specification:'Arial Bold';text-align:center" id="path3827"/><path d="M56.516 191.894v-22.907H73.5v3.875H61.14v5.079h11.5v3.859h-11.5v6.234h12.797v3.86z" style="line-height:1;-inkscape-font-specification:'Arial Bold';text-align:center" id="path3829"/><path d="M83.047 191.894v-19.032H76.25v-3.875h18.203v3.875h-6.781v19.032z" style="line-height:1;-inkscape-font-specification:'Arial Bold';text-align:center" id="path3831"/><path d="M97.469 191.894v-22.907h9.734q3.672 0 5.328.625 1.672.61 2.672 2.188 1 1.578 1 3.61 0 2.577-1.516 4.265-1.515 1.672-4.53 2.11 1.5.874 2.468 1.921.984 1.047 2.64 3.719l2.797 4.469h-5.53l-3.344-4.985q-1.782-2.672-2.438-3.36-.656-.702-1.39-.952-.735-.266-2.329-.266h-.937v9.563zm4.625-13.22h3.422q3.328 0 4.156-.28.828-.282 1.297-.97.469-.687.469-1.718 0-1.156-.626-1.86-.609-.718-1.734-.905-.562-.079-3.375-.079h-3.61z" style="line-height:1;-inkscape-font-specification:'Arial Bold';text-align:center" id="path3833"/><path d="M119.64 180.581q0-3.5 1.047-5.875.782-1.75 2.126-3.14 1.359-1.391 2.968-2.063 2.14-.906 4.938-.906 5.062 0 8.094 3.14 3.046 3.141 3.046 8.735 0 5.547-3.015 8.687-3.016 3.125-8.063 3.125-5.11 0-8.125-3.11-3.015-3.124-3.015-8.593zm4.766-.156q0 3.89 1.797 5.906 1.797 2 4.563 2 2.765 0 4.53-1.984 1.782-2 1.782-5.985 0-3.937-1.734-5.875-1.719-1.937-4.578-1.937-2.86 0-4.61 1.969-1.75 1.953-1.75 5.906z" style="line-height:1;-inkscape-font-specification:'Arial Bold';text-align:center" id="path3835"/><path d="M145.5 191.894v-22.907h4.5l9.375 15.297v-15.297h4.297v22.907h-4.64l-9.235-14.938v14.938z" style="line-height:1;-inkscape-font-specification:'Arial Bold';text-align:center" id="path3837"/><path d="M168.563 168.987h8.453q2.859 0 4.359.438 2.016.594 3.453 2.11 1.438 1.515 2.188 3.718.75 2.188.75 5.406 0 2.828-.704 4.875-.859 2.5-2.453 4.047-1.203 1.172-3.25 1.828-1.53.485-4.093.485h-8.704zm4.625 3.875v15.172h3.453q1.937 0 2.796-.218 1.125-.282 1.86-.954.75-.671 1.219-2.203.468-1.547.468-4.203 0-2.656-.468-4.078-.47-1.422-1.313-2.219-.844-.797-2.14-1.078-.97-.219-3.797-.219z" style="line-height:1;-inkscape-font-specification:'Arial Bold';text-align:center" id="path3839"/><path d="M189.719 191.894v-4.172l12.031-14.86h-10.672v-3.875h16.766v3.594l-12.547 15.453h13.031v3.86z" style="line-height:1;-inkscape-font-specification:'Arial Bold';text-align:center" id="path3841"/><path d="M211.39 191.894v-22.72h4.626v18.86h11.5v3.86z" style="line-height:1;-inkscape-font-specification:'Arial Bold';text-align:center" id="path3843"/></g></g></g></g></svg>