<svg xmlns="http://www.w3.org/2000/svg" width="256" height="256" version="1.1" id="SVGRoot"><g id="layer1"><g id="g4744" transform="matrix(4.73783 0 0 4.73783 -576.315 -344.65)"><g id="g5716" transform="translate(0 -.322)" fill-opacity="1"><path id="rect5657" d="M136.285 86.968a7.583 7.583 0 0 0-7.583 7.584 7.583 7.583 0 0 0 7.583 7.583h25.278a7.583 7.583 0 0 0 7.583-7.583 7.583 7.583 0 0 0-7.583-7.584z" opacity="1" fill="#fff" stroke="#000" stroke-width="2.866" stroke-linecap="round" stroke-linejoin="round" stroke-miterlimit="4" stroke-dasharray="none" stroke-dashoffset="0" stroke-opacity="1"/><path id="rect5666" d="M148.924 86.968v15.167h12.639a7.583 7.583 0 0 0 7.583-7.583 7.583 7.583 0 0 0-7.583-7.584z" opacity="1" fill="#000" stroke="#000" stroke-width="2.866" stroke-linecap="round" stroke-linejoin="round" stroke-miterlimit="4" stroke-dasharray="none" stroke-dashoffset="0" stroke-opacity="1"/><g aria-label="MOXIFLXCN" transform="matrix(.21107 0 0 .21107 121.641 73.066)" style="line-height:1;text-align:center" id="flowRoot5718" font-style="normal" font-weight="700" font-size="32" font-family="Arial" letter-spacing="0" word-spacing="0" text-anchor="middle" fill="#000" stroke="none" font-variant="normal" font-stretch="normal"><path d="M35.984 191.894v-22.907h6.922l4.157 15.625 4.109-15.625h6.937v22.907h-4.297v-18.032l-4.546 18.032h-4.453l-4.532-18.032v18.032z" style="line-height:1;-inkscape-font-specification:'Arial Bold';text-align:center" id="path4421"/><path d="M61.797 180.581q0-3.5 1.047-5.875.781-1.75 2.125-3.14 1.36-1.391 2.969-2.063 2.14-.906 4.937-.906 5.063 0 8.094 3.14 3.047 3.141 3.047 8.735 0 5.547-3.016 8.687-3.016 3.125-8.063 3.125-5.109 0-8.124-3.11-3.016-3.124-3.016-8.593zm4.766-.156q0 3.89 1.796 5.906 1.797 2 4.563 2t4.531-1.984q1.781-2 1.781-5.985 0-3.937-1.734-5.875-1.719-1.937-4.578-1.937-2.86 0-4.61 1.969-1.75 1.953-1.75 5.906z" style="line-height:1;-inkscape-font-specification:'Arial Bold';text-align:center" id="path4423"/><path d="M85.281 191.894l7.828-11.953-7.093-10.954h5.406l4.594 7.36 4.5-7.36h5.359l-7.125 11.125 7.828 11.782H101l-5.078-7.922-5.094 7.922z" style="line-height:1;-inkscape-font-specification:'Arial Bold';text-align:center" id="path4425"/><path d="M108.844 191.894v-22.907h4.625v22.907z" style="line-height:1;-inkscape-font-specification:'Arial Bold';text-align:center" id="path4427"/><path d="M117.89 191.894v-22.907h15.704v3.875h-11.078v5.422h9.562v3.875h-9.562v9.735z" style="line-height:1;-inkscape-font-specification:'Arial Bold';text-align:center" id="path4429"/><path d="M137.547 191.894v-22.72h4.625v18.86h11.5v3.86z" style="line-height:1;-inkscape-font-specification:'Arial Bold';text-align:center" id="path4431"/><path d="M154.656 191.894l7.828-11.953-7.093-10.954h5.406l4.594 7.36 4.5-7.36h5.359l-7.125 11.125 7.828 11.782h-5.578l-5.078-7.922-5.094 7.922z" style="line-height:1;-inkscape-font-specification:'Arial Bold';text-align:center" id="path4433"/><path d="M193.016 183.472l4.484 1.422q-1.031 3.75-3.438 5.578-2.39 1.812-6.078 1.812-4.562 0-7.5-3.11-2.937-3.124-2.937-8.53 0-5.72 2.953-8.875 2.953-3.172 7.766-3.172 4.203 0 6.828 2.484 1.562 1.469 2.344 4.219l-4.579 1.094q-.406-1.782-1.703-2.813-1.281-1.031-3.125-1.031-2.547 0-4.14 1.828-1.579 1.828-1.579 5.922 0 4.344 1.563 6.187 1.563 1.844 4.063 1.844 1.843 0 3.171-1.172 1.328-1.172 1.907-3.687z" style="line-height:1;-inkscape-font-specification:'Arial Bold';text-align:center" id="path4435"/><path d="M201.531 191.894v-22.907h4.5l9.375 15.297v-15.297h4.297v22.907h-4.64l-9.235-14.938v14.938z" style="line-height:1;-inkscape-font-specification:'Arial Bold';text-align:center" id="path4437"/></g></g></g></g></svg>