<svg xmlns="http://www.w3.org/2000/svg" width="256" height="256" version="1.1" id="SVGRoot"><g id="layer1"><g id="g4744" transform="matrix(4.73783 0 0 4.73783 -576.315 -344.65)"><g id="g1259" transform="translate(60.78 -750.27) scale(9.66175)"><circle id="circle1237" cx="9.095" cy="87.979" r="2.117" opacity="1" fill="#fff" fill-opacity="1" stroke="#000" stroke-width=".166" stroke-linecap="round" stroke-linejoin="round" stroke-miterlimit="4" stroke-dasharray="none" stroke-dashoffset="0" stroke-opacity="1"/></g><g id="g5451" transform="matrix(1.22164 0 0 1.22164 -26.505 -22.108)"><g transform="scale(49.89678) rotate(-60 -71.306 43.181)" id="g5268" fill="#000"><path d="M1.429 86.741c.008-.008.027-.008.035 0 .008.008.013.012.017.036.004.024.045.092.024.121-.022.03-.079.012-.1-.018-.021-.029.02-.08.024-.104.004-.024-.009-.027 0-.035z" id="path5266" fill="#000" stroke="#000" stroke-width=".007" stroke-linecap="butt" stroke-linejoin="miter" stroke-opacity="1"/></g><circle r="1.184" cy="99.751" cx="145.794" id="circle5562" opacity="1" fill="#fff" fill-opacity="1" stroke="none" stroke-width=".572" stroke-linecap="round" stroke-linejoin="round" stroke-miterlimit="4" stroke-dasharray="none" stroke-dashoffset="0" stroke-opacity="1"/><circle class="eye" r=".702" cy="99.751" cx="145.794" id="circle5564" opacity="1" fill="#000" fill-opacity="1" stroke="none" stroke-width=".678" stroke-linecap="round" stroke-linejoin="round" stroke-miterlimit="4" stroke-dasharray="none" stroke-dashoffset="0" stroke-opacity="1"/></g></g></g></svg>