<svg xmlns="http://www.w3.org/2000/svg" width="256" height="256" version="1.1" id="SVGRoot"><g id="layer1"><g id="g4744" transform="matrix(4.73783 0 0 4.73783 -576.315 -344.65)"><g id="g1259" transform="translate(60.78 -750.27) scale(9.66175)"><circle id="circle1237" cx="9.095" cy="87.979" r="2.117" opacity="1" fill="#fff" fill-opacity="1" stroke="#000" stroke-width=".166" stroke-linecap="round" stroke-linejoin="round" stroke-miterlimit="4" stroke-dasharray="none" stroke-dashoffset="0" stroke-opacity="1"/></g><g id="g5451" transform="matrix(1.22164 0 0 1.22164 -26.505 -22.108)"><g id="g947" transform="matrix(.69949 0 0 .69949 106.274 34.69)" stroke-width="1" stroke-linecap="round" stroke-linejoin="round" stroke-miterlimit="4" stroke-dasharray="none" stroke-opacity="1"><path id="path4736" d="M52.917 83.668a7.665 7.135 0 0 0-7.665 7.134c0 9.99 6.132 11.416 7.665 14.27 1.533-2.854 7.664-4.28 7.664-14.27a7.665 7.135 0 0 0-7.664-7.134z" opacity="1" fill="#000" fill-opacity="1" stroke="#000" stroke-dashoffset="0"/><path style="line-height:normal;font-variant-ligatures:normal;font-variant-position:normal;font-variant-caps:normal;font-variant-numeric:normal;font-variant-alternates:normal;font-feature-settings:normal;text-indent:0;text-align:start;text-decoration-line:none;text-decoration-style:solid;text-decoration-color:#000;text-transform:none;text-orientation:mixed;white-space:normal;shape-padding:0;isolation:auto;mix-blend-mode:normal;solid-color:#000;solid-opacity:1" d="M58.486 74.672a2.448 2.448 0 0 0-1.256.142c-.837.331-1.425 1.06-1.89 1.91-.465.852-.815 1.852-1.123 2.833-.309.98-.576 1.942-.844 2.691-.268.75-.597 1.26-.723 1.34a.5.5 0 0 0 .348.916c2.735-.455 3.804-1.636 4.375-2.594.286-.479.472-.868.67-1.076.198-.208.379-.318.937-.293 1.048.047 2.045 1.006 3.1 2.256 1.055 1.25 2.125 2.728 3.563 3.506a.5.5 0 1 0 .476-.881c-1.138-.616-2.192-1.989-3.275-3.272-1.083-1.282-2.236-2.536-3.819-2.607-.756-.034-1.338.213-1.707.602-.368.388-.552.834-.802 1.253-.39.652-1.144 1.258-2.528 1.72.087-.207.243-.3.326-.532.29-.806.555-1.773.856-2.73.301-.958.64-1.906 1.047-2.65.407-.746.874-1.262 1.38-1.462.51-.201 1.001-.11 1.618.225.617.334 1.304.918 2.031 1.582 1.454 1.328 3.055 2.991 5.04 3.504a.5.5 0 1 0 .25-.97c-1.584-.408-3.136-1.92-4.616-3.272-.74-.677-1.464-1.309-2.229-1.723a3.605 3.605 0 0 0-1.205-.418z" id="path889" color="#000" font-style="normal" font-variant="normal" font-weight="400" font-stretch="normal" font-size="medium" font-family="sans-serif" text-decoration="none" letter-spacing="normal" word-spacing="normal" writing-mode="lr-tb" direction="ltr" dominant-baseline="auto" baseline-shift="baseline" text-anchor="start" clip-rule="nonzero" display="inline" overflow="visible" visibility="visible" opacity="1" color-interpolation="sRGB" color-interpolation-filters="linearRGB" vector-effect="none" fill="#000" fill-opacity="1" fill-rule="nonzero" stroke="none" stroke-dashoffset="0" color-rendering="auto" image-rendering="auto" shape-rendering="auto" text-rendering="auto"/><path style="line-height:normal;font-variant-ligatures:normal;font-variant-position:normal;font-variant-caps:normal;font-variant-numeric:normal;font-variant-alternates:normal;font-feature-settings:normal;text-indent:0;text-align:start;text-decoration-line:none;text-decoration-style:solid;text-decoration-color:#000;text-transform:none;text-orientation:mixed;white-space:normal;shape-padding:0;isolation:auto;mix-blend-mode:normal;solid-color:#000;solid-opacity:1" d="M47.611 74.672c-.415.058-.822.21-1.205.418-.764.414-1.488 1.046-2.228 1.722-1.48 1.353-3.032 2.865-4.615 3.274a.5.5 0 1 0 .25.969c1.983-.513 3.585-2.176 5.039-3.504.726-.664 1.414-1.248 2.03-1.582.618-.335 1.108-.426 1.618-.225.507.2.974.716 1.38 1.461.408.745.746 1.693 1.048 2.65.301.958.566 1.925.855 2.73.083.232.238.327.324.532-1.381-.461-2.136-1.067-2.525-1.719-.25-.419-.434-.865-.803-1.253-.368-.389-.948-.636-1.705-.602-1.582.071-2.737 1.325-3.82 2.607-1.083 1.283-2.138 2.656-3.275 3.272a.5.5 0 1 0 .476.88c1.437-.777 2.507-2.256 3.563-3.505 1.055-1.25 2.054-2.209 3.101-2.256.559-.025.738.085.936.293.197.208.384.597.67 1.076.57.958 1.64 2.14 4.375 2.594a.5.5 0 0 0 .347-.916c-.126-.08-.454-.59-.722-1.34-.269-.75-.536-1.711-.844-2.691-.309-.98-.658-1.981-1.123-2.832-.465-.852-1.053-1.58-1.89-1.91-.418-.165-.842-.201-1.257-.143z" id="path925" color="#000" font-style="normal" font-variant="normal" font-weight="400" font-stretch="normal" font-size="medium" font-family="sans-serif" text-decoration="none" letter-spacing="normal" word-spacing="normal" writing-mode="lr-tb" direction="ltr" dominant-baseline="auto" baseline-shift="baseline" text-anchor="start" clip-rule="nonzero" display="inline" overflow="visible" visibility="visible" opacity="1" color-interpolation="sRGB" color-interpolation-filters="linearRGB" vector-effect="none" fill="#000" fill-opacity="1" fill-rule="nonzero" stroke="none" stroke-dashoffset="0" color-rendering="auto" image-rendering="auto" shape-rendering="auto" text-rendering="auto"/><path d="M52.917 105.177c-.906 2.629 2.394 1.753-.252 5.721" id="path931" fill="none" stroke="#000"/></g><circle r="1.184" cy="100.701" cx="143.288" id="path879-3" opacity="1" fill="#fff" fill-opacity="1" stroke="none" stroke-width=".572" stroke-linecap="round" stroke-linejoin="round" stroke-miterlimit="4" stroke-dasharray="none" stroke-dashoffset="0" stroke-opacity="1"/><circle class="eye" r=".702" cy="100.701" cx="143.288" id="path883-5" opacity="1" fill="#000" fill-opacity="1" stroke="none" stroke-width=".678" stroke-linecap="round" stroke-linejoin="round" stroke-miterlimit="4" stroke-dasharray="none" stroke-dashoffset="0" stroke-opacity="1"/></g></g></g></svg>