<svg xmlns="http://www.w3.org/2000/svg" width="256" height="256" version="1.1" id="SVGRoot"><g id="layer1"><g id="g4744" transform="matrix(4.73783 0 0 4.73783 -576.315 -344.65)"><g id="g5716" transform="translate(0 -.322)" fill-opacity="1"><path id="rect5657" d="M136.285 86.968a7.583 7.583 0 0 0-7.583 7.584 7.583 7.583 0 0 0 7.583 7.583h25.278a7.583 7.583 0 0 0 7.583-7.583 7.583 7.583 0 0 0-7.583-7.584z" opacity="1" fill="#fff" stroke="#000" stroke-width="2.866" stroke-linecap="round" stroke-linejoin="round" stroke-miterlimit="4" stroke-dasharray="none" stroke-dashoffset="0" stroke-opacity="1"/><path id="rect5666" d="M148.924 86.968v15.167h12.639a7.583 7.583 0 0 0 7.583-7.583 7.583 7.583 0 0 0-7.583-7.584z" opacity="1" fill="#000" stroke="#000" stroke-width="2.866" stroke-linecap="round" stroke-linejoin="round" stroke-miterlimit="4" stroke-dasharray="none" stroke-dashoffset="0" stroke-opacity="1"/><g aria-label="VLACYCLVR" transform="matrix(.21107 0 0 .21107 121.641 73.066)" style="line-height:1;text-align:center" id="flowRoot5718" font-style="normal" font-weight="700" font-size="32" font-family="Arial" letter-spacing="0" word-spacing="0" text-anchor="middle" fill="#000" stroke="none" font-variant="normal" font-stretch="normal"><path d="M39.484 191.894l-8.187-22.907h5.015l5.797 16.954 5.61-16.954h4.906l-8.203 22.907z" style="line-height:1;-inkscape-font-specification:'Arial Bold';text-align:center" id="path5015"/><path d="M55.14 191.894v-22.72h4.626v18.86h11.5v3.86z" style="line-height:1;-inkscape-font-specification:'Arial Bold';text-align:center" id="path5017"/><path d="M95.234 191.894h-5.03l-2-5.203h-9.157l-1.89 5.203H72.25l8.922-22.907h4.89zm-8.515-9.063l-3.156-8.5-3.094 8.5z" style="line-height:1;-inkscape-font-specification:'Arial Bold';text-align:center" id="path5019"/><path d="M112.36 183.472l4.484 1.422q-1.031 3.75-3.438 5.578-2.39 1.812-6.078 1.812-4.562 0-7.5-3.11-2.937-3.124-2.937-8.53 0-5.72 2.953-8.875 2.953-3.172 7.765-3.172 4.204 0 6.829 2.484 1.562 1.469 2.343 4.219l-4.578 1.094q-.406-1.782-1.703-2.813-1.281-1.031-3.125-1.031-2.547 0-4.14 1.828-1.579 1.828-1.579 5.922 0 4.344 1.563 6.187 1.562 1.844 4.062 1.844 1.844 0 3.172-1.172t1.906-3.687z" style="line-height:1;-inkscape-font-specification:'Arial Bold';text-align:center" id="path5021"/><path d="M126.844 191.894v-9.641l-8.39-13.266h5.421l5.39 9.063 5.282-9.063h5.328l-8.422 13.297v9.61z" style="line-height:1;-inkscape-font-specification:'Arial Bold';text-align:center" id="path5023"/><path d="M156.86 183.472l4.484 1.422q-1.031 3.75-3.438 5.578-2.39 1.812-6.078 1.812-4.562 0-7.5-3.11-2.937-3.124-2.937-8.53 0-5.72 2.953-8.875 2.953-3.172 7.765-3.172 4.203 0 6.828 2.484 1.563 1.469 2.344 4.219l-4.578 1.094q-.406-1.782-1.703-2.813-1.281-1.031-3.125-1.031-2.547 0-4.14 1.828-1.579 1.828-1.579 5.922 0 4.344 1.563 6.187 1.562 1.844 4.062 1.844 1.844 0 3.172-1.172t1.906-3.687z" style="line-height:1;-inkscape-font-specification:'Arial Bold';text-align:center" id="path5025"/><path d="M165.453 191.894v-22.72h4.625v18.86h11.5v3.86z" style="line-height:1;-inkscape-font-specification:'Arial Bold';text-align:center" id="path5027"/><path d="M188.36 191.894l-8.188-22.907h5.015l5.797 16.954 5.61-16.954h4.906l-8.203 22.907z" style="line-height:1;-inkscape-font-specification:'Arial Bold';text-align:center" id="path5029"/><path d="M203.906 191.894v-22.907h9.735q3.671 0 5.328.625 1.672.61 2.672 2.188 1 1.578 1 3.61 0 2.577-1.516 4.265-1.516 1.672-4.531 2.11 1.5.874 2.469 1.921.984 1.047 2.64 3.719l2.797 4.469h-5.531l-3.344-4.985q-1.781-2.672-2.438-3.36-.656-.702-1.39-.952-.735-.266-2.328-.266h-.938v9.563zm4.625-13.22h3.422q3.328 0 4.156-.28.828-.282 1.297-.97.469-.687.469-1.718 0-1.156-.625-1.86-.61-.718-1.734-.905-.563-.079-3.375-.079h-3.61z" style="line-height:1;-inkscape-font-specification:'Arial Bold';text-align:center" id="path5031"/></g></g></g></g></svg>