<?xml version="1.0" encoding="UTF-8" standalone="no"?>
<!-- Created with Inkscape (http://www.inkscape.org/) -->

<svg
   xmlns:dc="http://purl.org/dc/elements/1.1/"
   xmlns:cc="http://creativecommons.org/ns#"
   xmlns:rdf="http://www.w3.org/1999/02/22-rdf-syntax-ns#"
   xmlns:svg="http://www.w3.org/2000/svg"
   xmlns="http://www.w3.org/2000/svg"
   xmlns:sodipodi="http://sodipodi.sourceforge.net/DTD/sodipodi-0.dtd"
   xmlns:inkscape="http://www.inkscape.org/namespaces/inkscape"
   version="1.1"
   id="svg885"
   width="320"
   height="320"
   viewBox="0 0 320 320"
   sodipodi:docname="cigmah_logo.svg"
   inkscape:version="0.92.2 (5c3e80d, 2017-08-06)">
  <metadata
     id="metadata891">
    <rdf:RDF>
      <cc:Work
         rdf:about="">
        <dc:format>image/svg+xml</dc:format>
        <dc:type
           rdf:resource="http://purl.org/dc/dcmitype/StillImage" />
        <dc:title></dc:title>
      </cc:Work>
    </rdf:RDF>
  </metadata>
  <defs
     id="defs889" />
  <sodipodi:namedview
     pagecolor="#ffffff"
     bordercolor="#666666"
     borderopacity="1"
     objecttolerance="10"
     gridtolerance="10"
     guidetolerance="10"
     inkscape:pageopacity="0"
     inkscape:pageshadow="2"
     inkscape:window-width="2560"
     inkscape:window-height="1376"
     id="namedview887"
     showgrid="false"
     inkscape:zoom="2.6329846"
     inkscape:cx="250.71876"
     inkscape:cy="148.75365"
     inkscape:window-x="0"
     inkscape:window-y="27"
     inkscape:window-maximized="1"
     inkscape:current-layer="svg885"
     inkscape:snap-page="true" />
  <path
     style="fill:#00d1b2;fill-opacity:1;stroke-width:0.58503306"
     d="M 239.46251,33.673483 C 196.50963,48.545428 158.63755,48.342725 105.26438,52.997447 82.088119,53.905124 61.087963,67.699368 47.548967,85.982604 31.448002,107.16138 24.106498,134.05325 23.969267,160.42111 c 0.08528,41.1356 20.86693,82.2775 55.665408,104.77234 29.867305,21.24815 69.265115,25.59788 104.319605,16.95482 28.07312,-5.62536 55.68686,-20.08421 72.04913,-44.20341 9.70621,-14.30004 13.65659,-31.77853 14.36057,-48.83984 0.809,-30.13401 -12.14128,-61.08444 -36.28446,-79.64119 15.51235,-5.89504 32.37935,-9.14554 46.23018,-18.750772 5.58728,-2.515244 9.74365,-7.384008 12.26856,-12.847871 3.94931,-4.834643 4.78785,-12.097811 1.05923,-17.313325 -3.82048,-5.172501 -7.51406,-10.920288 -13.66601,-13.598595 -12.00092,-7.845134 -26.15273,-12.817755 -40.50897,-13.279784 z m -2.19958,17.98176 c -0.67323,3.503405 -0.95823,8.295575 2.79947,10.27921 4.05974,1.919366 8.62632,-0.424681 12.78473,-0.912522 4.68025,-1.013805 9.69746,-2.416055 14.14736,0.137812 4.09606,1.531618 7.74117,4.121546 10.67228,7.352906 -3.09274,6.301452 -8.58295,11.178722 -14.72523,14.428154 -5.81169,-2.600199 -12.64779,-5.809431 -19.02157,-3.359368 -2.85356,1.302014 -4.05571,4.604655 -3.97184,7.56201 -2.73523,0.284815 -5.51014,0.98732 -8.17393,0.247582 -37.01443,2.900202 -74.84953,-5.578831 -111.38649,3.75053 -12.87135,3.49025 -25.979718,8.623352 -35.083699,18.787323 -18.279398,19.21011 -23.164812,48.00166 -17.824486,73.33756 3.737905,17.59456 12.282847,34.5009 25.430192,46.91903 13.273723,12.41532 31.228803,19.2489 49.303623,19.80513 42.72646,7.41015 86.18234,-27.65199 90.74301,-70.20515 1.59035,-11.74109 -1.07281,-23.52056 -5.5137,-34.35954 -4.20788,-10.906 -9.55077,-21.37166 -13.0383,-32.55243 17.0178,12.01844 29.84504,30.26753 35.51334,50.20657 8.1762,31.48962 -2.13056,68.80171 -29.23222,88.15146 -10.22869,7.34711 -22.63611,10.40608 -34.56188,13.536 -33.90739,7.58012 -71.63773,2.76602 -100.560201,-17.46097 C 62.856632,231.66035 48.582526,205.52533 45.80032,178.33914 42.096568,144.7064 53.518919,109.58116 76.835881,84.765608 103.24787,71.004956 133.73895,71.646895 162.70032,69.963897 c 20.93198,-1.073873 42.26186,-4.028219 61.22957,-13.445855 4.45144,-1.529667 8.89587,-3.673657 13.33304,-4.862799 z m -50.84647,51.838277 c 1.37097,2.6411 2.31759,5.32181 2.90003,8.20189 2.18537,4.05093 5.1595,7.62855 6.89147,11.96181 9.70476,18.94694 20.37459,39.45834 17.19849,61.36567 -1.69059,13.28654 -8.8182,26.27267 -20.08798,34.0334 -15.20866,11.04648 -34.99448,13.83535 -53.1559,11.07621 -22.9564,-3.21008 -44.340191,-19.33471 -51.002138,-42.07885 -8.043729,-21.45602 -5.456539,-47.83424 9.655334,-65.56369 7.385644,-8.80406 18.600004,-13.75939 29.814974,-15.28742 18.92205,-3.48004 38.20912,-3.0299 57.37323,-4.68712 l 0.22733,0.53906 z"
     id="path953"
     inkscape:connector-curvature="0"
     sodipodi:nodetypes="cccccccccccccccccccccccccccccccccccccccccccccccccccc" />
</svg>
