<?xml version="1.0" encoding="UTF-8" standalone="no"?>
<!-- Created with Inkscape (http://www.inkscape.org/) -->

<svg
   xmlns:dc="http://purl.org/dc/elements/1.1/"
   xmlns:cc="http://creativecommons.org/ns#"
   xmlns:rdf="http://www.w3.org/1999/02/22-rdf-syntax-ns#"
   xmlns:svg="http://www.w3.org/2000/svg"
   xmlns="http://www.w3.org/2000/svg"
   xmlns:sodipodi="http://sodipodi.sourceforge.net/DTD/sodipodi-0.dtd"
   xmlns:inkscape="http://www.inkscape.org/namespaces/inkscape"
   width="210mm"
   height="297mm"
   viewBox="0 0 210 297"
   version="1.1"
   id="svg8"
   inkscape:version="0.92.4 (5da689c313, 2019-01-14)"
   sodipodi:docname="sti-bugs-n-drugs.svg">
  <defs
     id="defs2" />
  <sodipodi:namedview
     id="base"
     pagecolor="#ffffff"
     bordercolor="#666666"
     borderopacity="1.0"
     inkscape:pageopacity="0.0"
     inkscape:pageshadow="2"
     inkscape:zoom="1.979899"
     inkscape:cx="426.25752"
     inkscape:cy="828.39224"
     inkscape:document-units="mm"
     inkscape:current-layer="layer1"
     showgrid="true"
     inkscape:window-width="3840"
     inkscape:window-height="2066"
     inkscape:window-x="-11"
     inkscape:window-y="-11"
     inkscape:window-maximized="1">
    <inkscape:grid
       type="xygrid"
       id="grid874" />
  </sodipodi:namedview>
  <metadata
     id="metadata5">
    <rdf:RDF>
      <cc:Work
         rdf:about="">
        <dc:format>image/svg+xml</dc:format>
        <dc:type
           rdf:resource="http://purl.org/dc/dcmitype/StillImage" />
        <dc:title></dc:title>
      </cc:Work>
    </rdf:RDF>
  </metadata>
  <g
     inkscape:label="Layer 1"
     inkscape:groupmode="layer"
     id="layer1">
    <g
       id="g4536"
       style="stroke-width:0.33072916;stroke-miterlimit:4;stroke-dasharray:none"
       transform="matrix(9.6617521,0,0,9.6617521,-7.917995,-815.3982)">
      <g
         id="g4713"
         transform="translate(0.52916667,0.79374962)">
        <circle
           style="opacity:1;fill:#000000;fill-opacity:1;stroke:#000000;stroke-width:0.33072916;stroke-linecap:round;stroke-linejoin:round;stroke-miterlimit:4;stroke-dasharray:none;stroke-dashoffset:0;stroke-opacity:1"
           id="path4530"
           cx="2.6458333"
           cy="87.979149"
           r="2.6458333" />
        <path
           style="fill:none;stroke:#ffffff;stroke-width:0.33072916;stroke-linecap:round;stroke-linejoin:round;stroke-miterlimit:4;stroke-dasharray:none;stroke-opacity:1"
           d="m 3.4395833,86.127064 -1.8520839,0.926043 1.8520839,0.926041 v -0.694532 l -1.8520839,0.694532 1.8520839,0.926042 v -0.694532 l -1.8520839,0.694532 1.8520839,0.926043"
           id="path4532"
           inkscape:connector-curvature="0"
           sodipodi:nodetypes="ccccccccc" />
      </g>
    </g>
    <g
       id="g4726"
       transform="matrix(9.6617521,0,0,9.6617521,7.4858828,-812.44616)">
      <circle
         style="opacity:1;fill:#000000;fill-opacity:1;stroke:#000000;stroke-width:0.33072916;stroke-linecap:round;stroke-linejoin:round;stroke-miterlimit:4;stroke-dasharray:none;stroke-dashoffset:0;stroke-opacity:1"
         id="circle4538"
         cx="9.0950518"
         cy="87.979149"
         r="2.6458333" />
      <circle
         style="opacity:1;fill:none;fill-opacity:1;stroke:#ffffff;stroke-width:0.33072916;stroke-linecap:round;stroke-linejoin:round;stroke-miterlimit:4;stroke-dasharray:none;stroke-dashoffset:0;stroke-opacity:1"
         id="path4544"
         cx="9.0950518"
         cy="87.979149"
         r="1.5875" />
      <g
         style="fill:#ffffff"
         id="g4567"
         transform="translate(7.5266998,0.61470413)">
        <g
           id="g4576"
           transform="translate(-1.4882812)"
           style="fill:#ffffff;stroke-width:0.33072916;stroke-miterlimit:4;stroke-dasharray:none">
          <circle
             style="opacity:1;fill:#ffffff;fill-opacity:1;stroke:none;stroke-width:0.33072916;stroke-linecap:round;stroke-linejoin:round;stroke-miterlimit:4;stroke-dasharray:none;stroke-dashoffset:0;stroke-opacity:1"
             id="path4546"
             cx="2.776104"
             cy="86.941437"
             r="0.17008927" />
          <circle
             r="0.17008927"
             cy="87.787453"
             cx="2.776104"
             id="circle4548"
             style="opacity:1;fill:#ffffff;fill-opacity:1;stroke:none;stroke-width:0.33072916;stroke-linecap:round;stroke-linejoin:round;stroke-miterlimit:4;stroke-dasharray:none;stroke-dashoffset:0;stroke-opacity:1" />
          <circle
             style="opacity:1;fill:#ffffff;fill-opacity:1;stroke:none;stroke-width:0.33072916;stroke-linecap:round;stroke-linejoin:round;stroke-miterlimit:4;stroke-dasharray:none;stroke-dashoffset:0;stroke-opacity:1"
             id="circle4550"
             cx="3.0566325"
             cy="87.354851"
             r="0.17008927" />
          <circle
             r="0.17008927"
             cy="87.787453"
             cx="3.337162"
             id="circle4552"
             style="opacity:1;fill:#ffffff;fill-opacity:1;stroke:none;stroke-width:0.33072916;stroke-linecap:round;stroke-linejoin:round;stroke-miterlimit:4;stroke-dasharray:none;stroke-dashoffset:0;stroke-opacity:1" />
          <circle
             style="opacity:1;fill:#ffffff;fill-opacity:1;stroke:none;stroke-width:0.33072916;stroke-linecap:round;stroke-linejoin:round;stroke-miterlimit:4;stroke-dasharray:none;stroke-dashoffset:0;stroke-opacity:1"
             id="circle4554"
             cx="3.6176918"
             cy="87.354851"
             r="0.17008927" />
          <circle
             r="0.17008927"
             cy="86.941437"
             cx="3.337162"
             id="circle4556"
             style="opacity:1;fill:#ffffff;fill-opacity:1;stroke:none;stroke-width:0.33072916;stroke-linecap:round;stroke-linejoin:round;stroke-miterlimit:4;stroke-dasharray:none;stroke-dashoffset:0;stroke-opacity:1" />
          <circle
             r="0.17008927"
             cy="87.354851"
             cx="2.495575"
             id="circle4558"
             style="opacity:1;fill:#ffffff;fill-opacity:1;stroke:none;stroke-width:0.33072916;stroke-linecap:round;stroke-linejoin:round;stroke-miterlimit:4;stroke-dasharray:none;stroke-dashoffset:0;stroke-opacity:1" />
        </g>
      </g>
    </g>
    <g
       id="g4709"
       transform="matrix(9.6617521,0,0,9.6617521,4.381844,-811.05854)">
      <circle
         r="2.6458333"
         cy="87.979149"
         cx="15.977242"
         id="circle4578"
         style="opacity:1;fill:#000000;fill-opacity:1;stroke:#000000;stroke-width:0.33072916;stroke-linecap:round;stroke-linejoin:round;stroke-miterlimit:4;stroke-dasharray:none;stroke-dashoffset:0;stroke-opacity:1" />
      <g
         transform="translate(0.10224247,0.00591036)"
         id="g4701">
        <g
           id="g4679">
          <path
             style="opacity:1;fill:none;fill-opacity:1;stroke:#ffffff;stroke-width:0.33072916;stroke-linecap:round;stroke-linejoin:round;stroke-miterlimit:4;stroke-dasharray:none;stroke-dashoffset:0;stroke-opacity:1"
             d="m 15.875,87.979145 c -10e-7,0.730626 0.104603,1.31701 -0.626024,1.31701 -0.730626,0 -1.322916,-0.59229 -1.322916,-1.322916 0,-0.730627 0.59229,-1.322917 1.322916,-1.322917 0.730627,0 0.626024,0.598196 0.626024,1.328823 z"
             id="path4580"
             inkscape:connector-curvature="0"
             sodipodi:nodetypes="sssss" />
          <g
             transform="matrix(-1,0,0,1,31.75,0)"
             id="g4663"
             style="stroke:#ffffff">
            <path
               style="opacity:1;fill:none;fill-opacity:1;stroke:#ffffff;stroke-width:0.33072916;stroke-linecap:round;stroke-linejoin:round;stroke-miterlimit:4;stroke-dasharray:none;stroke-dashoffset:0;stroke-opacity:1"
               d="m 15.875,87.979145 c -10e-7,0.730626 0.104603,1.31701 -0.626024,1.31701 -0.730626,0 -1.322916,-0.59229 -1.322916,-1.322916 0,-0.730627 0.59229,-1.322917 1.322916,-1.322917 0.730627,0 0.626024,0.598196 0.626024,1.328823 z"
               id="path4651"
               inkscape:connector-curvature="0"
               sodipodi:nodetypes="sssss" />
          </g>
        </g>
      </g>
    </g>
    <g
       id="g958"
       transform="translate(35.17295,3.7384388)">
      <path
         inkscape:transform-center-y="-0.25236347"
         d="m 53.147855,65.150805 28.095862,20.41284 -10.731666,33.028665 -34.728396,0 -10.731664,-33.028667 z"
         inkscape:randomized="0"
         inkscape:rounded="0"
         inkscape:flatsided="true"
         sodipodi:arg2="-0.9424778"
         sodipodi:arg1="-1.5707963"
         sodipodi:r2="23.899771"
         sodipodi:r1="29.541739"
         sodipodi:cy="94.692543"
         sodipodi:cx="53.147854"
         sodipodi:sides="5"
         id="path4732"
         style="opacity:1;fill:#ffffff;fill-opacity:1;stroke:#000000;stroke-width:1;stroke-linecap:round;stroke-linejoin:round;stroke-miterlimit:4;stroke-dasharray:none;stroke-dashoffset:0;stroke-opacity:1"
         sodipodi:type="star" />
      <g
         transform="matrix(0,-1.1438852,1.1438852,0,-54.011759,155.21819)"
         id="g939">
        <g
           transform="rotate(90,52.19288,92.824448)"
           id="g947">
          <path
             style="opacity:1;fill:#000000;fill-opacity:1;stroke:#000000;stroke-width:1;stroke-linecap:round;stroke-linejoin:round;stroke-miterlimit:4;stroke-dasharray:none;stroke-dashoffset:0;stroke-opacity:1"
             d="m 52.916667,83.667581 a 7.6648489,7.134897 0 0 0 -7.664822,7.134866 c 0,9.988863 6.131853,11.415783 7.664822,14.269753 1.53297,-2.85397 7.664824,-4.28089 7.664824,-14.269753 a 7.6648489,7.134897 0 0 0 -7.664824,-7.134866 z"
             id="path4736"
             inkscape:connector-curvature="0" />
          <circle
             style="opacity:1;fill:#ffffff;fill-opacity:1;stroke:none;stroke-width:0.96491677;stroke-linecap:round;stroke-linejoin:round;stroke-miterlimit:4;stroke-dasharray:none;stroke-dashoffset:0;stroke-opacity:1"
             id="path879"
             cx="52.916668"
             cy="94.369865"
             r="1.9976596" />
          <circle
             style="opacity:1;fill:#000000;fill-opacity:1;stroke:none;stroke-width:1.14430535;stroke-linecap:round;stroke-linejoin:round;stroke-miterlimit:4;stroke-dasharray:none;stroke-dashoffset:0;stroke-opacity:1"
             id="path883"
             cx="52.916668"
             cy="94.369865"
             r="1.1845231" />
          <path
             inkscape:connector-curvature="0"
             id="path889"
             d="m 58.486328,74.671875 c -0.415126,-0.0581 -0.838533,-0.02219 -1.255859,0.142578 -0.83735,0.330608 -1.425588,1.058929 -1.890625,1.910156 -0.465037,0.851227 -0.814638,1.85181 -1.123047,2.832032 -0.308409,0.980221 -0.575362,1.942245 -0.84375,2.691406 -0.268388,0.749161 -0.596676,1.260715 -0.722656,1.339844 a 0.50005,0.50005 0 0 0 0.347656,0.916015 c 2.735017,-0.454812 3.803712,-1.636252 4.375,-2.59375 0.285644,-0.478749 0.472163,-0.867858 0.669922,-1.076172 0.197758,-0.208314 0.379007,-0.318054 0.9375,-0.292968 1.047366,0.04704 2.044436,1.006253 3.099609,2.255859 1.055173,1.249606 2.125225,2.727885 3.5625,3.505859 a 0.50075565,0.50075565 0 1 0 0.476563,-0.880859 c -1.137688,-0.615813 -2.19216,-1.98865 -3.275391,-3.271484 -1.083231,-1.282834 -2.23597,-2.536347 -3.818359,-2.607422 -0.756386,-0.03397 -1.338521,0.213383 -1.707032,0.601562 -0.36851,0.38818 -0.552772,0.834962 -0.802734,1.253907 -0.388942,0.65188 -1.143756,1.25746 -2.527344,1.71875 0.08622,-0.205752 0.243093,-0.299349 0.326172,-0.53125 0.288834,-0.80623 0.554153,-1.772792 0.855469,-2.730469 0.301316,-0.957678 0.639792,-1.905247 1.046875,-2.650391 0.407082,-0.745144 0.873803,-1.260738 1.380859,-1.460937 0.509757,-0.201265 1.000461,-0.109644 1.617188,0.224609 0.616727,0.334253 1.304512,0.917967 2.03125,1.582031 1.453475,1.328129 3.055133,2.991501 5.039062,3.503907 a 0.50024408,0.50024408 0 1 0 0.25,-0.96875 C 64.951935,79.677026 63.400372,78.165278 61.919922,76.8125 61.179697,76.136111 60.456108,75.504296 59.691406,75.089844 59.309055,74.882618 58.901454,74.729978 58.486328,74.671875 Z"
             style="color:#000000;font-style:normal;font-variant:normal;font-weight:normal;font-stretch:normal;font-size:medium;line-height:normal;font-family:sans-serif;font-variant-ligatures:normal;font-variant-position:normal;font-variant-caps:normal;font-variant-numeric:normal;font-variant-alternates:normal;font-feature-settings:normal;text-indent:0;text-align:start;text-decoration:none;text-decoration-line:none;text-decoration-style:solid;text-decoration-color:#000000;letter-spacing:normal;word-spacing:normal;text-transform:none;writing-mode:lr-tb;direction:ltr;text-orientation:mixed;dominant-baseline:auto;baseline-shift:baseline;text-anchor:start;white-space:normal;shape-padding:0;clip-rule:nonzero;display:inline;overflow:visible;visibility:visible;opacity:1;isolation:auto;mix-blend-mode:normal;color-interpolation:sRGB;color-interpolation-filters:linearRGB;solid-color:#000000;solid-opacity:1;vector-effect:none;fill:#000000;fill-opacity:1;fill-rule:nonzero;stroke:none;stroke-width:1;stroke-linecap:round;stroke-linejoin:round;stroke-miterlimit:4;stroke-dasharray:none;stroke-dashoffset:0;stroke-opacity:1;color-rendering:auto;image-rendering:auto;shape-rendering:auto;text-rendering:auto;enable-background:accumulate" />
          <path
             inkscape:connector-curvature="0"
             id="path925"
             d="m 47.611328,74.671875 c -0.415126,0.0581 -0.822727,0.210743 -1.205078,0.417969 -0.764702,0.414452 -1.488291,1.046267 -2.228516,1.722656 -1.48045,1.352778 -3.032013,2.864526 -4.615234,3.273438 a 0.50024408,0.50024408 0 1 0 0.25,0.96875 c 1.983929,-0.512406 3.585588,-2.175778 5.039062,-3.503907 0.726738,-0.664064 1.414524,-1.247778 2.03125,-1.582031 0.616727,-0.334253 1.107431,-0.425874 1.617188,-0.224609 0.507056,0.200199 0.973777,0.715793 1.380859,1.460937 0.407083,0.745144 0.74556,1.692713 1.046875,2.650391 0.301316,0.957677 0.566636,1.924239 0.855469,2.730469 0.08294,0.231521 0.238161,0.325786 0.324219,0.53125 -1.381609,-0.461258 -2.136691,-1.067276 -2.525391,-1.71875 -0.249961,-0.418945 -0.434224,-0.865727 -0.802734,-1.253907 -0.368511,-0.388179 -0.948692,-0.635536 -1.705078,-0.601562 -1.58239,0.07108 -2.737082,1.324588 -3.820313,2.607422 -1.083231,1.282834 -2.137703,2.655671 -3.27539,3.271484 a 0.50075541,0.50075541 0 1 0 0.476562,0.880859 c 1.437275,-0.777974 2.507327,-2.256253 3.5625,-3.505859 1.055173,-1.249606 2.054196,-2.208816 3.101563,-2.255859 0.558492,-0.02509 0.737788,0.08465 0.935547,0.292968 0.197758,0.208314 0.384278,0.597423 0.669921,1.076172 0.571288,0.957498 1.639983,2.138938 4.375,2.59375 a 0.50005,0.50005 0 0 0 0.347657,-0.916015 c -0.125981,-0.07913 -0.454268,-0.590683 -0.722657,-1.339844 -0.268388,-0.749161 -0.535341,-1.711185 -0.84375,-2.691406 -0.308409,-0.980222 -0.658009,-1.980805 -1.123047,-2.832032 -0.465037,-0.851227 -1.053274,-1.579548 -1.890624,-1.910156 -0.417327,-0.164771 -0.840734,-0.200681 -1.25586,-0.142578 z"
             style="color:#000000;font-style:normal;font-variant:normal;font-weight:normal;font-stretch:normal;font-size:medium;line-height:normal;font-family:sans-serif;font-variant-ligatures:normal;font-variant-position:normal;font-variant-caps:normal;font-variant-numeric:normal;font-variant-alternates:normal;font-feature-settings:normal;text-indent:0;text-align:start;text-decoration:none;text-decoration-line:none;text-decoration-style:solid;text-decoration-color:#000000;letter-spacing:normal;word-spacing:normal;text-transform:none;writing-mode:lr-tb;direction:ltr;text-orientation:mixed;dominant-baseline:auto;baseline-shift:baseline;text-anchor:start;white-space:normal;shape-padding:0;clip-rule:nonzero;display:inline;overflow:visible;visibility:visible;opacity:1;isolation:auto;mix-blend-mode:normal;color-interpolation:sRGB;color-interpolation-filters:linearRGB;solid-color:#000000;solid-opacity:1;vector-effect:none;fill:#000000;fill-opacity:1;fill-rule:nonzero;stroke:none;stroke-width:1;stroke-linecap:round;stroke-linejoin:round;stroke-miterlimit:4;stroke-dasharray:none;stroke-dashoffset:0;stroke-opacity:1;color-rendering:auto;image-rendering:auto;shape-rendering:auto;text-rendering:auto;enable-background:accumulate" />
          <path
             sodipodi:nodetypes="cc"
             inkscape:connector-curvature="0"
             id="path931"
             d="m 52.916666,105.17708 c -0.905397,2.62857 2.394533,1.75261 -0.251301,5.72136"
             style="fill:none;stroke:#000000;stroke-width:1;stroke-linecap:round;stroke-linejoin:round;stroke-miterlimit:4;stroke-dasharray:none;stroke-opacity:1" />
        </g>
      </g>
    </g>
    <g
       id="g1235"
       transform="translate(-12.53491,-1.3229128)">
      <path
         d="m 54.868243,122.375 -24.441162,-1e-5 -12.22058,-21.16666 12.220582,-21.16667 24.441162,2e-6 12.22058,21.166668 z"
         inkscape:randomized="0"
         inkscape:rounded="0"
         inkscape:flatsided="true"
         sodipodi:arg2="1.5707963"
         sodipodi:arg1="1.0471976"
         sodipodi:r2="21.166668"
         sodipodi:r1="24.441162"
         sodipodi:cy="101.20833"
         sodipodi:cx="42.647663"
         sodipodi:sides="6"
         id="path962"
         style="opacity:1;fill:#ffffff;fill-opacity:1;stroke:#000000;stroke-width:0.79211813;stroke-linecap:round;stroke-linejoin:round;stroke-miterlimit:4;stroke-dasharray:none;stroke-dashoffset:0;stroke-opacity:1"
         sodipodi:type="star" />
      <g
         transform="translate(1.5461727,2.211242)"
         id="g1155">
        <g
           id="g1081"
           transform="matrix(1.7228179,0,0,1.7228179,-40.729344,-60.957856)">
          <g
             transform="translate(-1.5357591,-0.15357614)"
             id="g1191">
            <g
               style="stroke-width:0.99571407;stroke-miterlimit:4;stroke-dasharray:none"
               transform="matrix(1.0426825,0,0,1.1179463,-2.0643946,-10.069665)"
               id="g1114">
              <path
                 sodipodi:nodetypes="cc"
                 inkscape:connector-curvature="0"
                 id="path964"
                 d="M 44.979167,98.5625 C 45.964865,96.082023 55.562506,87.979163 55.562506,87.979163"
                 style="fill:none;stroke:#000000;stroke-width:0.99571407;stroke-linecap:round;stroke-linejoin:miter;stroke-miterlimit:4;stroke-dasharray:none;stroke-opacity:1" />
              <circle
                 style="opacity:1;fill:#000000;fill-opacity:1;stroke:none;stroke-width:0.99571407;stroke-linecap:round;stroke-linejoin:round;stroke-miterlimit:4;stroke-dasharray:none;stroke-dashoffset:0;stroke-opacity:1"
                 id="circle990"
                 cx="44.437881"
                 cy="94.432457"
                 r="0.93192965" />
              <circle
                 r="0.76096892"
                 cy="95.378304"
                 cx="45.815365"
                 id="circle992"
                 style="opacity:1;fill:#000000;fill-opacity:1;stroke:none;stroke-width:0.81305224;stroke-linecap:round;stroke-linejoin:round;stroke-miterlimit:4;stroke-dasharray:none;stroke-dashoffset:0;stroke-opacity:1" />
              <circle
                 style="opacity:1;fill:#000000;fill-opacity:1;stroke:none;stroke-width:0.74671984;stroke-linecap:round;stroke-linejoin:round;stroke-miterlimit:4;stroke-dasharray:none;stroke-dashoffset:0;stroke-opacity:1"
                 id="circle994"
                 cx="43.886753"
                 cy="95.898491"
                 r="0.69888574" />
              <circle
                 r="0.93192965"
                 cy="96.889771"
                 cx="45.29565"
                 id="circle996"
                 style="opacity:1;fill:#000000;fill-opacity:1;stroke:none;stroke-width:0.99571407;stroke-linecap:round;stroke-linejoin:round;stroke-miterlimit:4;stroke-dasharray:none;stroke-dashoffset:0;stroke-opacity:1" />
              <circle
                 style="opacity:1;fill:#000000;fill-opacity:1;stroke:none;stroke-width:0.99571407;stroke-linecap:round;stroke-linejoin:round;stroke-miterlimit:4;stroke-dasharray:none;stroke-dashoffset:0;stroke-opacity:1"
                 id="circle998"
                 cx="42.629742"
                 cy="94.875519"
                 r="0.93192965" />
              <circle
                 r="0.6866203"
                 cy="93.094093"
                 cx="45.321434"
                 id="circle1000"
                 style="opacity:1;fill:#000000;fill-opacity:1;stroke:none;stroke-width:0.73361492;stroke-linecap:round;stroke-linejoin:round;stroke-miterlimit:4;stroke-dasharray:none;stroke-dashoffset:0;stroke-opacity:1" />
              <circle
                 r="0.76096892"
                 cy="92.955971"
                 cx="46.723251"
                 id="circle1004"
                 style="opacity:1;fill:#000000;fill-opacity:1;stroke:none;stroke-width:0.81305224;stroke-linecap:round;stroke-linejoin:round;stroke-miterlimit:4;stroke-dasharray:none;stroke-dashoffset:0;stroke-opacity:1" />
              <circle
                 style="opacity:1;fill:#000000;fill-opacity:1;stroke:none;stroke-width:0.99571407;stroke-linecap:round;stroke-linejoin:round;stroke-miterlimit:4;stroke-dasharray:none;stroke-dashoffset:0;stroke-opacity:1"
                 id="circle1006"
                 cx="47.753216"
                 cy="96.568115"
                 r="0.93192965" />
              <circle
                 r="0.68908578"
                 cy="97.235878"
                 cx="43.737286"
                 id="circle1008"
                 style="opacity:1;fill:#000000;fill-opacity:1;stroke:none;stroke-width:0.99571407;stroke-linecap:round;stroke-linejoin:round;stroke-miterlimit:4;stroke-dasharray:none;stroke-dashoffset:0;stroke-opacity:1" />
              <circle
                 style="opacity:1;fill:#000000;fill-opacity:1;stroke:none;stroke-width:0.99571407;stroke-linecap:round;stroke-linejoin:round;stroke-miterlimit:4;stroke-dasharray:none;stroke-dashoffset:0;stroke-opacity:1"
                 id="circle1010"
                 cx="46.87331"
                 cy="98.16272"
                 r="0.93192965" />
              <circle
                 style="opacity:1;fill:#000000;fill-opacity:1;stroke:none;stroke-width:0.99571407;stroke-linecap:round;stroke-linejoin:round;stroke-miterlimit:4;stroke-dasharray:none;stroke-dashoffset:0;stroke-opacity:1"
                 id="circle1012"
                 cx="42.683254"
                 cy="96.425095"
                 r="0.65439379" />
              <circle
                 r="0.93192965"
                 cy="96.686241"
                 cx="48.698158"
                 id="circle1014"
                 style="opacity:1;fill:#000000;fill-opacity:1;stroke:none;stroke-width:0.99571407;stroke-linecap:round;stroke-linejoin:round;stroke-miterlimit:4;stroke-dasharray:none;stroke-dashoffset:0;stroke-opacity:1" />
              <circle
                 style="opacity:1;fill:#000000;fill-opacity:1;stroke:none;stroke-width:0.74929452;stroke-linecap:round;stroke-linejoin:round;stroke-miterlimit:4;stroke-dasharray:none;stroke-dashoffset:0;stroke-opacity:1"
                 id="circle1016"
                 cx="48.201103"
                 cy="93.115463"
                 r="0.93239856" />
              <circle
                 r="0.93192965"
                 cy="91.016602"
                 cx="51.202251"
                 id="circle1018"
                 style="opacity:1;fill:#000000;fill-opacity:1;stroke:none;stroke-width:0.99571407;stroke-linecap:round;stroke-linejoin:round;stroke-miterlimit:4;stroke-dasharray:none;stroke-dashoffset:0;stroke-opacity:1" />
              <circle
                 style="opacity:1;fill:#000000;fill-opacity:1;stroke:none;stroke-width:0.99571407;stroke-linecap:round;stroke-linejoin:round;stroke-miterlimit:4;stroke-dasharray:none;stroke-dashoffset:0;stroke-opacity:1"
                 id="circle1020"
                 cx="52.099941"
                 cy="89.315712"
                 r="0.93192965" />
              <circle
                 r="0.93192965"
                 cy="90.945732"
                 cx="55.38361"
                 id="circle1022"
                 style="opacity:1;fill:#000000;fill-opacity:1;stroke:none;stroke-width:0.99571407;stroke-linecap:round;stroke-linejoin:round;stroke-miterlimit:4;stroke-dasharray:none;stroke-dashoffset:0;stroke-opacity:1" />
              <circle
                 style="opacity:1;fill:#000000;fill-opacity:1;stroke:none;stroke-width:0.99571407;stroke-linecap:round;stroke-linejoin:round;stroke-miterlimit:4;stroke-dasharray:none;stroke-dashoffset:0;stroke-opacity:1"
                 id="circle1024"
                 cx="51.296741"
                 cy="93.449821"
                 r="0.93192965" />
              <ellipse
                 transform="matrix(0.89432237,-0.44742318,0.27500253,0.9614435,0,0)"
                 ry="0.65376484"
                 rx="0.38745055"
                 cy="109.50403"
                 cx="24.253851"
                 id="circle1026"
                 style="opacity:1;fill:#000000;fill-opacity:1;stroke:none;stroke-width:1.00434685;stroke-linecap:round;stroke-linejoin:round;stroke-miterlimit:4;stroke-dasharray:none;stroke-dashoffset:0;stroke-opacity:1" />
              <circle
                 style="opacity:1;fill:#000000;fill-opacity:1;stroke:none;stroke-width:0.99571407;stroke-linecap:round;stroke-linejoin:round;stroke-miterlimit:4;stroke-dasharray:none;stroke-dashoffset:0;stroke-opacity:1"
                 id="circle1028"
                 cx="54.060692"
                 cy="91.06385"
                 r="1.1917883" />
              <circle
                 r="0.60076201"
                 cy="94.110374"
                 cx="46.109318"
                 id="circle1030"
                 style="opacity:1;fill:#000000;fill-opacity:1;stroke:none;stroke-width:0.64188015;stroke-linecap:round;stroke-linejoin:round;stroke-miterlimit:4;stroke-dasharray:none;stroke-dashoffset:0;stroke-opacity:1" />
              <ellipse
                 style="opacity:1;fill:#000000;fill-opacity:1;stroke:none;stroke-width:1.00434685;stroke-linecap:round;stroke-linejoin:round;stroke-miterlimit:4;stroke-dasharray:none;stroke-dashoffset:0;stroke-opacity:1"
                 id="ellipse1032"
                 cx="-70.113548"
                 cy="71.646515"
                 rx="0.38745055"
                 ry="0.65376484"
                 transform="matrix(0.23211329,-0.97268876,0.91327667,0.40733981,0,0)" />
              <circle
                 style="opacity:1;fill:#000000;fill-opacity:1;stroke:none;stroke-width:0.99571407;stroke-linecap:round;stroke-linejoin:round;stroke-miterlimit:4;stroke-dasharray:none;stroke-dashoffset:0;stroke-opacity:1"
                 id="circle1034"
                 cx="49.973827"
                 cy="98.056412"
                 r="0.74294156" />
              <ellipse
                 style="opacity:1;fill:#000000;fill-opacity:1;stroke:none;stroke-width:1.00434685;stroke-linecap:round;stroke-linejoin:round;stroke-miterlimit:4;stroke-dasharray:none;stroke-dashoffset:0;stroke-opacity:1"
                 id="ellipse1038"
                 cx="25.929426"
                 cy="103.96907"
                 rx="0.38745055"
                 ry="0.65376484"
                 transform="matrix(0.89432237,-0.44742318,0.27500253,0.9614435,0,0)" />
              <circle
                 style="opacity:1;fill:#000000;fill-opacity:1;stroke:none;stroke-width:0.99571407;stroke-linecap:round;stroke-linejoin:round;stroke-miterlimit:4;stroke-dasharray:none;stroke-dashoffset:0;stroke-opacity:1"
                 id="circle1040"
                 cx="51.556602"
                 cy="87.425827"
                 r="0.69569451" />
              <ellipse
                 ry="0.62482399"
                 rx="0.53032994"
                 cy="95.316086"
                 cx="52.029068"
                 id="circle1042"
                 style="opacity:1;fill:#000000;fill-opacity:1;stroke:none;stroke-width:0.99571407;stroke-linecap:round;stroke-linejoin:round;stroke-miterlimit:4;stroke-dasharray:none;stroke-dashoffset:0;stroke-opacity:1" />
              <circle
                 style="opacity:1;fill:#000000;fill-opacity:1;stroke:none;stroke-width:0.99571407;stroke-linecap:round;stroke-linejoin:round;stroke-miterlimit:4;stroke-dasharray:none;stroke-dashoffset:0;stroke-opacity:1"
                 id="circle1044"
                 cx="50.540791"
                 cy="94.867233"
                 r="0.69569451" />
              <ellipse
                 transform="matrix(0.05968134,-0.99821748,0.97013576,0.24256257,0,0)"
                 ry="0.65376484"
                 rx="0.38745055"
                 cy="57.249077"
                 cx="-75.244431"
                 id="ellipse1046"
                 style="opacity:1;fill:#000000;fill-opacity:1;stroke:none;stroke-width:1.00434685;stroke-linecap:round;stroke-linejoin:round;stroke-miterlimit:4;stroke-dasharray:none;stroke-dashoffset:0;stroke-opacity:1" />
              <circle
                 r="0.55395341"
                 cy="88.7015"
                 cx="50.422672"
                 id="circle1048"
                 style="opacity:1;fill:#000000;fill-opacity:1;stroke:none;stroke-width:0.99571407;stroke-linecap:round;stroke-linejoin:round;stroke-miterlimit:4;stroke-dasharray:none;stroke-dashoffset:0;stroke-opacity:1" />
              <circle
                 style="opacity:1;fill:#000000;fill-opacity:1;stroke:none;stroke-width:0.44530579;stroke-linecap:round;stroke-linejoin:round;stroke-miterlimit:4;stroke-dasharray:none;stroke-dashoffset:0;stroke-opacity:1"
                 id="circle1193"
                 cx="46.806313"
                 cy="94.846306"
                 r="0.41677999" />
              <circle
                 r="0.51844513"
                 cy="94.085846"
                 cx="47.26659"
                 id="circle1195"
                 style="opacity:1;fill:#000000;fill-opacity:1;stroke:none;stroke-width:0.55392927;stroke-linecap:round;stroke-linejoin:round;stroke-miterlimit:4;stroke-dasharray:none;stroke-dashoffset:0;stroke-opacity:1" />
            </g>
            <path
               inkscape:connector-curvature="0"
               id="path1116"
               d="M 48.805166,95.043655 C 49.573046,91.204257 48.037287,85.8291 48.037287,85.8291"
               style="fill:none;stroke:#000000;stroke-width:1.0750314;stroke-linecap:round;stroke-linejoin:miter;stroke-miterlimit:4;stroke-dasharray:none;stroke-opacity:1" />
            <path
               sodipodi:nodetypes="cc"
               style="fill:none;stroke:#000000;stroke-width:1.0750314;stroke-linecap:round;stroke-linejoin:miter;stroke-miterlimit:4;stroke-dasharray:none;stroke-opacity:1"
               d="M 48.958742,90.743529 C 45.613518,88.708805 42.815705,89.20777 42.815705,89.20777"
               id="path1118"
               inkscape:connector-curvature="0" />
          </g>
        </g>
      </g>
    </g>
    <g
       transform="matrix(9.6617521,0,0,9.6617521,60.780526,-750.26908)"
       id="g1259">
      <circle
         r="2.6458333"
         cy="87.979149"
         cx="9.0950518"
         id="circle1237"
         style="opacity:1;fill:#000000;fill-opacity:1;stroke:#000000;stroke-width:0.33072916;stroke-linecap:round;stroke-linejoin:round;stroke-miterlimit:4;stroke-dasharray:none;stroke-dashoffset:0;stroke-opacity:1" />
      <circle
         r="1.5875"
         cy="87.979149"
         cx="9.0950518"
         id="circle1239"
         style="opacity:1;fill:none;fill-opacity:1;stroke:#ffffff;stroke-width:0.33072916;stroke-linecap:round;stroke-linejoin:round;stroke-miterlimit:4;stroke-dasharray:none;stroke-dashoffset:0;stroke-opacity:1" />
    </g>
    <path
       style="opacity:1;fill:#ffffff;fill-opacity:1;stroke:none;stroke-width:1.24105299;stroke-linecap:round;stroke-linejoin:round;stroke-miterlimit:4;stroke-dasharray:none;stroke-dashoffset:0;stroke-opacity:1"
       d="m 156.10417,102.53125 a 0.88646634,0.88646634 0 0 0 1.21093,-0.32446 l 2.21616,-3.838511 a 0.88646634,0.88646634 0 0 0 -0.32446,-1.210946 0.88646634,0.88646634 0 0 0 -1.21094,0.324479 l -2.21617,3.838498 a 0.88646634,0.88646634 0 0 0 0.32448,1.21094 z"
       id="path1270"
       inkscape:connector-curvature="0" />
    <path
       inkscape:connector-curvature="0"
       id="path1272"
       d="m 157.42708,94.59375 a 0.88646634,0.88646634 0 0 0 -0.52981,-1.136185 l -4.16503,-1.515938 a 0.88646634,0.88646634 0 0 0 -1.13621,0.529819 0.88646634,0.88646634 0 0 0 0.52983,1.136183 l 4.16501,1.515953 a 0.88646634,0.88646634 0 0 0 1.13621,-0.529832 z"
       style="opacity:1;fill:#ffffff;fill-opacity:1;stroke:none;stroke-width:1.24105299;stroke-linecap:round;stroke-linejoin:round;stroke-miterlimit:4;stroke-dasharray:none;stroke-dashoffset:0;stroke-opacity:1" />
    <path
       style="opacity:1;fill:#ffffff;fill-opacity:1;stroke:none;stroke-width:1.24105299;stroke-linecap:round;stroke-linejoin:round;stroke-miterlimit:4;stroke-dasharray:none;stroke-dashoffset:0;stroke-opacity:1"
       d="m 154.78125,97.239583 a 0.88646634,0.88646634 0 0 0 -1.21091,-0.324474 l -3.8385,2.216173 a 0.88646634,0.88646634 0 0 0 -0.32449,1.210948 0.88646634,0.88646634 0 0 0 1.21093,0.32446 l 3.83852,-2.216156 a 0.88646634,0.88646634 0 0 0 0.32445,-1.210951 z"
       id="path1274"
       inkscape:connector-curvature="0" />
    <path
       inkscape:connector-curvature="0"
       id="path1276"
       d="m 149.48958,90.625 a 0.88646634,0.88646634 0 0 0 -0.88645,0.886434 l 1e-5,4.432327 a 0.88646634,0.88646634 0 0 0 0.88648,0.88649 0.88646634,0.88646634 0 0 0 0.88644,-0.88645 l 1e-5,-4.432345 A 0.88646634,0.88646634 0 0 0 149.48958,90.625 Z"
       style="opacity:1;fill:#ffffff;fill-opacity:1;stroke:none;stroke-width:1.24105299;stroke-linecap:round;stroke-linejoin:round;stroke-miterlimit:4;stroke-dasharray:none;stroke-dashoffset:0;stroke-opacity:1" />
    <path
       style="opacity:1;fill:#ffffff;fill-opacity:1;stroke:none;stroke-width:1.24105299;stroke-linecap:round;stroke-linejoin:round;stroke-miterlimit:4;stroke-dasharray:none;stroke-dashoffset:0;stroke-opacity:1"
       d="m 150.8125,102.53125 a 0.88646634,0.88646634 0 0 0 0.10924,1.24885 l 3.39538,2.84903 a 0.88646634,0.88646634 0 0 0 1.24889,-0.10924 0.88646634,0.88646634 0 0 0 -0.10926,-1.24886 l -3.39536,-2.84907 a 0.88646634,0.88646634 0 0 0 -1.24889,0.10929 z"
       id="path1278"
       inkscape:connector-curvature="0" />
    <path
       style="opacity:1;fill:#ffffff;fill-opacity:1;stroke:none;stroke-width:1.24105299;stroke-linecap:round;stroke-linejoin:round;stroke-miterlimit:4;stroke-dasharray:none;stroke-dashoffset:0;stroke-opacity:1"
       d="m 141.55208,91.947917 a 0.88646634,0.88646634 0 0 0 -0.10928,1.248851 l 2.84906,3.39535 a 0.88646634,0.88646634 0 0 0 1.24889,0.10928 0.88646634,0.88646634 0 0 0 0.10926,-1.248858 l -2.84904,-3.395381 a 0.88646634,0.88646634 0 0 0 -1.24889,-0.109242 z"
       id="path1280"
       inkscape:connector-curvature="0" />
    <path
       inkscape:connector-curvature="0"
       id="path1282"
       d="m 137.58333,99.885417 a 0.88646634,0.88646634 0 0 0 1.13616,0.529813 l 4.16502,-1.515967 a 0.88646634,0.88646634 0 0 0 0.52983,-1.13619 0.88646634,0.88646634 0 0 0 -1.13617,-0.529799 l -4.16505,1.515929 a 0.88646634,0.88646634 0 0 0 -0.52979,1.136214 z"
       style="opacity:1;fill:#ffffff;fill-opacity:1;stroke:none;stroke-width:1.24105299;stroke-linecap:round;stroke-linejoin:round;stroke-miterlimit:4;stroke-dasharray:none;stroke-dashoffset:0;stroke-opacity:1" />
    <path
       style="opacity:1;fill:#ffffff;fill-opacity:1;stroke:none;stroke-width:1.24105299;stroke-linecap:round;stroke-linejoin:round;stroke-miterlimit:4;stroke-dasharray:none;stroke-dashoffset:0;stroke-opacity:1"
       d="m 144.19792,103.85417 a 0.88646634,0.88646634 0 0 0 1.21089,-0.32444 l 2.21615,-3.838543 a 0.88646634,0.88646634 0 0 0 -0.32445,-1.21093 0.88646634,0.88646634 0 0 0 -1.2109,0.32446 l -2.2162,3.838513 a 0.88646634,0.88646634 0 0 0 0.32451,1.21094 z"
       id="path1284"
       inkscape:connector-curvature="0" />
    <path
       inkscape:connector-curvature="0"
       id="path1286"
       d="m 149.48958,110.46875 a 0.88646634,0.88646634 0 0 0 0.71906,-1.02689 l -0.7697,-4.365 a 0.88646634,0.88646634 0 0 0 -1.02691,-0.71907 0.88646634,0.88646634 0 0 0 -0.71905,1.0269 l 0.76965,4.36502 a 0.88646634,0.88646634 0 0 0 1.02695,0.71904 z"
       style="opacity:1;fill:#ffffff;fill-opacity:1;stroke:none;stroke-width:1.24105299;stroke-linecap:round;stroke-linejoin:round;stroke-miterlimit:4;stroke-dasharray:none;stroke-dashoffset:0;stroke-opacity:1" />
    <path
       style="opacity:1;fill:#ffffff;fill-opacity:1;stroke:none;stroke-width:1.24105299;stroke-linecap:round;stroke-linejoin:round;stroke-miterlimit:4;stroke-dasharray:none;stroke-dashoffset:0;stroke-opacity:1"
       d="m 145.52083,107.82292 a 0.88646634,0.88646634 0 0 0 -0.32444,-1.21089 l -3.83855,-2.21616 a 0.88646634,0.88646634 0 0 0 -1.21092,0.32445 0.88646634,0.88646634 0 0 0 0.32445,1.2109 l 3.83852,2.21621 a 0.88646634,0.88646634 0 0 0 1.21094,-0.32451 z"
       id="path1288"
       inkscape:connector-curvature="0" />
  </g>
</svg>
